<?xml version="1.0" encoding="UTF-8"?>
<svg version="1.1" xmlns="http://www.w3.org/2000/svg" width="1536" height="433">
<path d="M0 0 C506.88 0 1013.76 0 1536 0 C1536 142.89 1536 285.78 1536 433 C1029.12 433 522.24 433 0 433 C0 290.11 0 147.22 0 0 Z " fill="#FDFDFD" transform="translate(0,0)"/>
<path d="M0 0 C8.86666631 6.86792882 18.21406925 14.82934005 22.09716797 25.62207031 C21.04142578 25.61304688 19.98568359 25.60402344 18.89794922 25.59472656 C-5.17907519 25.88394834 -25.80276559 35.9590486 -42.90283203 52.62207031 C-49.4011698 59.31794852 -49.4011698 59.31794852 -54.00323486 67.31005859 C-55.61640848 70.78922361 -57.05864487 73.02450227 -59.90283203 75.62207031 C-66.20837536 77.23938583 -72.39374541 76.97173021 -78.86376953 76.80957031 C-80.7379166 76.80386775 -82.61208658 76.8034641 -84.48623657 76.80810547 C-89.41258235 76.80810547 -94.33602137 76.74510184 -99.26165771 76.66607666 C-107.13591027 76.55119036 -115.01108732 76.53618987 -122.88603592 76.51358032 C-125.6255899 76.49737019 -128.3639043 76.45688259 -131.1031189 76.41186523 C-132.7985601 76.39562262 -134.49400476 76.37973512 -136.18945312 76.36425781 C-136.9409111 76.34554123 -137.69236908 76.32682465 -138.46659851 76.30754089 C-145.24576651 76.27580584 -151.2368126 77.84472403 -156.90283203 81.62207031 C-157.35066856 83.68764381 -157.35066856 83.68764381 -157.27172852 86.10009766 C-157.27861191 87.02801117 -157.2854953 87.95592468 -157.29258728 88.91195679 C-157.28334984 90.41975204 -157.28334984 90.41975204 -157.27392578 91.95800781 C-157.29130963 94.07519692 -157.30889399 96.19238438 -157.32666016 98.30957031 C-157.33673765 101.65628078 -157.34032907 105.00288436 -157.33862305 108.34960938 C-157.34218832 111.57356915 -157.36951838 114.79669585 -157.39892578 118.02050781 C-157.39074326 119.02165619 -157.38256073 120.02280457 -157.37413025 121.05429077 C-157.44936376 128.05784001 -157.44936376 128.05784001 -159.91088867 131.12060547 C-160.56822998 131.61608887 -161.22557129 132.11157227 -161.90283203 132.62207031 C-162.4034312 135.20724619 -162.4034312 135.20724619 -161.90283203 137.62207031 C-161.24283203 138.28207031 -160.58283203 138.94207031 -159.90283203 139.62207031 C-159.67578125 141.50146484 -159.67578125 141.50146484 -159.70751953 143.75488281 C-159.71396484 144.56054688 -159.72041016 145.36621094 -159.72705078 146.19628906 C-159.7521875 147.45892578 -159.7521875 147.45892578 -159.77783203 148.74707031 C-159.78685547 149.5965625 -159.79587891 150.44605469 -159.80517578 151.32128906 C-159.82877556 153.42166915 -159.8646472 155.52190475 -159.90283203 157.62207031 C-166.28900411 157.72403727 -172.6749639 157.79377218 -179.06176758 157.84179688 C-181.23144374 157.86183112 -183.40106646 157.88906644 -185.57055664 157.92382812 C-188.70098103 157.97270731 -191.83068751 157.99512156 -194.96142578 158.01269531 C-195.92116806 158.03334045 -196.88091034 158.0539856 -197.86973572 158.07525635 C-207.7724686 158.07850739 -215.63974076 154.27094668 -222.90283203 147.62207031 C-231.32428713 138.42265169 -234.28573488 128.48061408 -234.18408203 116.23144531 C-233.78369549 111.09315142 -232.30666021 107.13811472 -229.90283203 102.62207031 C-229.54060547 101.914375 -229.17837891 101.20667969 -228.80517578 100.47753906 C-223.91753488 91.81233164 -216.13497988 86.10232794 -206.90283203 82.62207031 C-204.17591934 82.0263855 -201.70162103 81.77755859 -198.90283203 81.62207031 C-198.75587891 81.08839844 -198.60892578 80.55472656 -198.45751953 80.00488281 C-194.06230442 65.40468548 -184.14957928 53.17790728 -170.90283203 45.62207031 C-164.02226557 42.3476351 -157.59457888 39.49930592 -149.91064453 39.48925781 C-148.95802734 39.48796875 -148.00541016 39.48667969 -147.02392578 39.48535156 C-146.03521484 39.48921875 -145.04650391 39.49308594 -144.02783203 39.49707031 C-143.04685547 39.49320313 -142.06587891 39.48933594 -141.05517578 39.48535156 C-136.22682953 39.49186755 -131.64840029 39.60860997 -126.90283203 40.62207031 C-126.59345703 39.44644531 -126.28408203 38.27082031 -125.96533203 37.05957031 C-119.10641601 17.04656879 -103.46415223 1.98413971 -84.90283203 -7.37792969 C-80.9657404 -9.2885771 -77.03556573 -10.94021196 -72.90283203 -12.37792969 C-72.00951172 -12.69632813 -71.11619141 -13.01472656 -70.19580078 -13.34277344 C-47.07588071 -20.35958834 -19.26368669 -13.94973668 0 0 Z " fill="#025891" transform="translate(402.90283203125,42.3779296875)"/>
<path d="M0 0 C1.12923524 -0.00724325 1.12923524 -0.00724325 2.28128332 -0.01463282 C4.79956633 -0.02588926 7.3168306 -0.00859646 9.83506775 0.00863647 C11.64210281 0.00649026 13.44913653 0.00261203 15.25616455 -0.00286865 C20.16107531 -0.01256195 25.06562205 0.0027407 29.97048879 0.02303743 C35.10156799 0.04060358 40.23263587 0.03708345 45.36373901 0.03631592 C53.97956942 0.03818891 62.59525893 0.0555534 71.21104431 0.08285522 C81.17618227 0.11431595 91.14116597 0.12485106 101.10635 0.12338412 C110.68891738 0.12216394 120.27143447 0.13237069 129.85398674 0.14896774 C133.9340447 0.15603366 138.01408486 0.15969427 142.09414864 0.16075516 C146.89664427 0.16276248 151.69901012 0.1749594 156.50146294 0.19508743 C158.26552918 0.20093469 160.02961036 0.20338872 161.79368591 0.20223236 C164.19845189 0.20125244 166.60285315 0.21254717 169.00756836 0.22705078 C169.70844088 0.22395358 170.4093134 0.22085637 171.13142449 0.21766531 C174.71636741 0.25346277 177.46475086 0.39642333 180.44029236 2.49447632 C182.92573383 6.22263852 182.76351716 9.16681835 182.77622986 13.48666382 C182.78621506 14.66109543 182.78621506 14.66109543 182.79640198 15.85925293 C182.80652262 17.51514336 182.81121918 19.17107452 182.81089783 20.82699585 C182.81526485 23.35356341 182.85157043 25.87837481 182.88951111 28.40463257 C182.89538077 30.01530369 182.89934916 31.6259831 182.90122986 33.23666382 C182.91560089 33.98890228 182.92997192 34.74114075 182.94477844 35.51617432 C182.91268227 39.22320394 182.5642279 41.30219981 180.53648376 44.4480896 C176.97158554 47.92828724 174.03432498 47.64501504 169.29277039 47.64837646 C168.54800485 47.65275872 167.80323931 47.65714097 167.03590512 47.66165602 C164.52714368 47.6750668 162.01841738 47.68122798 159.5096283 47.68734741 C157.71613403 47.69524659 155.92264137 47.70351543 154.12915039 47.71212769 C148.22767154 47.73836937 142.32618551 47.75365759 136.42466736 47.76791382 C134.39473211 47.77327264 132.36479691 47.77865015 130.33486176 47.78404617 C121.89197785 47.80567816 113.44909587 47.82441552 105.00619125 47.83566856 C92.89825332 47.85191146 80.79063613 47.88509391 68.68281913 47.94206941 C60.17405048 47.98074646 51.66536771 48.00029862 43.15651345 48.00558913 C38.07232868 48.00924569 32.98848582 48.02129927 27.90439606 48.05369186 C23.12071087 48.08373306 18.33757519 48.09009844 13.55381584 48.07830811 C11.79862611 48.07808704 10.04341118 48.08641951 8.2883091 48.10396194 C5.89012668 48.12662603 3.49394152 48.11837333 1.0957489 48.10247803 C0.05594553 48.12330116 0.05594553 48.12330116 -1.00486398 48.14454496 C-6.52914592 48.05444206 -8.8164036 46.26594779 -12.55970764 42.49447632 C-13.31488037 40.47749329 -13.31488037 40.47749329 -13.32020569 38.50204468 C-13.33589096 37.75454453 -13.35157623 37.00704437 -13.36773682 36.2368927 C-13.35245438 35.44404373 -13.33717194 34.65119476 -13.32142639 33.83432007 C-13.32479507 33.00743179 -13.32816376 32.18054352 -13.33163452 31.32859802 C-13.33133638 29.58621988 -13.31615356 27.84378835 -13.28700256 26.10165405 C-13.24726831 23.43604605 -13.26631585 20.77540228 -13.29212952 18.10971069 C-13.28457135 16.41372788 -13.27361882 14.71775608 -13.25892639 13.02182007 C-13.26591049 12.22694687 -13.27289459 11.43207367 -13.28009033 10.6131134 C-13.1874705 6.98242073 -13.01487251 4.98079058 -10.49076176 2.28394127 C-6.9082143 0.0967271 -4.0711822 -0.05994598 0 0 Z " fill="#042B58" transform="translate(266.55970764160156,127.50552368164063)"/>
<path d="M0 0 C0.75211793 -0.0055344 1.50423586 -0.01106879 2.27914524 -0.0167709 C4.79507727 -0.03036571 7.31001523 -0.01541522 9.82592773 -0.00050354 C11.63134177 -0.00428715 13.4367529 -0.00978755 15.24215698 -0.01687622 C20.14299013 -0.03084258 25.04347266 -0.01965274 29.94428635 -0.00316501 C35.0722354 0.0106814 40.20016401 0.00422588 45.328125 0.0007019 C53.93975477 -0.00200054 62.55124519 0.01147835 71.1628418 0.03465271 C81.12004115 0.06126263 91.0770075 0.06300966 101.03423023 0.05126435 C110.61146336 0.04048633 120.18861218 0.04667384 129.76583862 0.06081963 C133.84229525 0.06657921 137.91869017 0.06649695 141.99514771 0.06175423 C146.79522786 0.05698303 151.59505278 0.0670921 156.39508438 0.08870888 C158.15711735 0.09427496 159.91917486 0.09474368 161.68120956 0.08975601 C164.08577092 0.08380302 166.48955192 0.09630804 168.89404297 0.11352539 C169.59200265 0.10751535 170.28996233 0.1015053 171.0090723 0.09531313 C175.70488308 0.15649151 179.0730335 1.12721746 182.44702148 4.50120544 C182.73934133 9.70079852 182.76111467 14.90306774 182.79711914 20.11009216 C182.81365445 21.86380811 182.84091272 23.61745734 182.87915039 25.37083435 C182.93401765 27.8990221 182.95580938 30.42562686 182.97045898 32.95433044 C182.99312836 33.7347168 183.01579773 34.51510315 183.03915405 35.31913757 C183.0244989 39.1096952 182.70478919 41.1623435 180.38778019 44.20828819 C176.79733442 47.00776815 174.18330613 47.20515119 169.81138611 47.13612366 C168.66990021 47.14782359 168.66990021 47.14782359 167.50535399 47.15975988 C164.95929206 47.17967962 162.41472494 47.16391659 159.86865234 47.1481781 C158.04190702 47.15495421 156.21516853 47.16385731 154.38844299 47.17472839 C149.42978066 47.1975275 144.47163832 47.18868326 139.51296687 47.17283297 C134.32581471 47.1601791 129.13870724 47.17191247 123.95155334 47.17976379 C115.24154663 47.18886103 106.53175188 47.1768696 97.82177734 47.15306091 C87.74743962 47.12584101 77.6736077 47.13466985 67.59928221 47.16219294 C58.95286186 47.18487067 50.30659392 47.18809088 41.66015345 47.17499959 C36.49453695 47.16719884 31.32915833 47.16618084 26.16355705 47.18268204 C21.30834796 47.19710837 16.45379218 47.18713876 11.59865379 47.15821075 C9.81523983 47.15159047 8.03177102 47.15351369 6.24837875 47.16452408 C3.81673075 47.17815449 1.38718649 47.16109722 -1.04432678 47.13612366 C-2.10730841 47.15285407 -2.10730841 47.15285407 -3.19176441 47.16992247 C-6.83226229 47.09720793 -8.30179261 46.73794915 -10.98892879 44.20531273 C-13.1139381 40.53135463 -13.14596677 37.19177683 -13.11938477 33.05979919 C-13.12558334 32.25510696 -13.13178192 31.45041473 -13.13816833 30.62133789 C-13.14525023 28.92611395 -13.14212095 27.23082023 -13.12939453 25.53562927 C-13.11550034 22.94277827 -13.14965096 20.35351903 -13.18774414 17.76097107 C-13.18869516 16.11057956 -13.18683746 14.46018354 -13.18188477 12.80979919 C-13.19514297 12.03679977 -13.20840118 11.26380035 -13.22206116 10.46737671 C-13.15987166 6.8732538 -12.98503076 4.96188747 -10.4855957 2.29682827 C-6.90494603 0.10441928 -4.07206048 -0.05603786 0 0 Z " fill="#012B58" transform="translate(266.552978515625,183.49879455566406)"/>
<path d="M0 0 C1.14632959 -0.00807831 1.14632959 -0.00807831 2.31581736 -0.01631981 C4.87847365 -0.03063585 7.44061606 -0.02348686 10.0032959 -0.01637268 C11.83974117 -0.02207431 13.6761829 -0.02903776 15.51261902 -0.03717041 C20.50221197 -0.05513872 25.49162943 -0.05392668 30.48124504 -0.04822803 C34.64400648 -0.04514185 38.80673392 -0.05122217 42.96949053 -0.05726677 C52.78759103 -0.0713221 62.60560453 -0.06974198 72.42370605 -0.05836487 C82.55986605 -0.04687892 92.69576162 -0.06096508 102.83188677 -0.08776134 C111.52921684 -0.1098949 120.22646377 -0.11656113 128.92382002 -0.11068493 C134.12073059 -0.10730898 139.31747157 -0.10977284 144.51435852 -0.12693596 C149.39981793 -0.14236598 154.28488448 -0.13849353 159.17032814 -0.11963081 C160.96503943 -0.11593415 162.75977957 -0.11908462 164.55446434 -0.1295166 C167.00120365 -0.14265491 169.44662856 -0.131244 171.89331055 -0.11352539 C172.60653803 -0.1231304 173.31976552 -0.1327354 174.05460596 -0.14263147 C177.38432454 -0.09288386 179.17671369 0.18828968 181.88539886 2.18904018 C184.19423535 5.44045995 184.03845098 8.63252977 184.01306152 12.4775238 C184.0192601 13.25906326 184.02545868 14.04060272 184.03184509 14.8458252 C184.0389363 16.4957505 184.03578133 18.14574745 184.02307129 19.79563904 C184.00921681 22.31399445 184.04326503 24.82862351 184.0814209 27.34666443 C184.08237229 28.95278513 184.08051219 30.55891045 184.07556152 32.1650238 C184.08881973 32.91412521 184.10207794 33.66322662 184.11573792 34.43502808 C184.04383991 38.49346665 183.61552382 40.18645267 180.96984863 43.33909607 C180.13719482 44.01512878 179.30454102 44.6911615 178.44665527 45.38768005 C178.11665527 45.71768005 177.78665527 46.04768005 177.44665527 46.38768005 C175.09261661 46.49416984 172.76756719 46.53546627 170.41265869 46.53485107 C169.29573367 46.54036611 169.29573367 46.54036611 168.15624452 46.54599255 C165.64203868 46.55707289 163.12787411 46.56088057 160.61364746 46.56468201 C158.81867846 46.57094342 157.02371076 46.57758993 155.22874451 46.58459473 C150.33813263 46.60203551 145.44753055 46.61256502 140.55689526 46.62080026 C137.50364955 46.62594426 134.45040693 46.63202028 131.39716339 46.63831139 C121.85091773 46.65737268 112.30467985 46.67160139 102.7584188 46.67992336 C91.72674937 46.68969799 80.69528049 46.71601951 69.66368175 46.75642425 C61.14560547 46.78655556 52.62758676 46.80138942 44.10945821 46.80470437 C39.01807986 46.80705844 33.92691551 46.81606495 28.83559418 46.84116554 C24.04541296 46.86439886 19.25558735 46.86869864 14.46536446 46.85840416 C12.70653922 46.85790752 10.94769678 46.86426567 9.18892479 46.87796021 C6.78838331 46.89560671 4.38912797 46.88860962 1.98858643 46.87542725 C1.29178921 46.88639649 0.594992 46.89736574 -0.12292027 46.90866739 C-4.85086946 46.84594316 -7.22818395 45.71822579 -10.55334473 42.38768005 C-12.15160241 39.19116469 -11.75876137 35.71701453 -11.79162598 32.2040863 C-11.79969772 31.39277756 -11.80776947 30.58146881 -11.81608582 29.74557495 C-11.8299231 28.02823524 -11.84064685 26.31086806 -11.84851074 24.5934906 C-11.86575532 21.9638138 -11.90964611 19.3353841 -11.95373535 16.70603943 C-11.96385955 15.03873098 -11.97237651 13.37141183 -11.97912598 11.7040863 C-11.99663406 10.91651443 -12.01414215 10.12894257 -12.03218079 9.31750488 C-12.01054621 3.88893839 -12.01054621 3.88893839 -9.9960556 1.68032742 C-6.67909275 -0.07496148 -3.66210978 -0.03085894 0 0 Z " fill="#042B58" transform="translate(265.5533447265625,239.61231994628906)"/>
<path d="M0 0 C1.40185547 0.57621094 1.40185547 0.57621094 2.83203125 1.1640625 C18.55322402 8.26395601 30.25945732 22.14494868 37.19140625 37.66796875 C38 40 38 40 38 43 C38.83917969 42.98646484 38.83917969 42.98646484 39.6953125 42.97265625 C49.22195955 43.32492776 58.7946534 47.74011551 65.9375 54.0625 C74.46371021 63.60838421 77.35240707 75.22793749 77.2109375 87.69140625 C76.59504739 97.35175666 72.3699561 107.27377684 65.1875 113.9375 C57.89737429 118.65464016 50.80709822 119.43379179 42.27734375 119.29296875 C40.79821251 119.28660149 40.79821251 119.28660149 39.28919983 119.28010559 C36.17167651 119.26345171 33.0548245 119.2258248 29.9375 119.1875 C27.81055628 119.17243597 25.68360232 119.15875059 23.55664062 119.14648438 C18.37083918 119.11359182 13.185533 119.0619026 8 119 C7.71533758 115.91884257 7.47841166 112.83579677 7.25 109.75 C7.16878906 108.87730469 7.08757812 108.00460938 7.00390625 107.10546875 C6.55586756 100.58401668 6.55586756 100.58401668 8.984375 97.390625 C9.64953125 96.93171875 10.3146875 96.4728125 11 96 C9.84826645 93.53199953 8.95216435 91.95216435 7 90 C6.7484436 88.00210571 6.7484436 88.00210571 6.74462891 85.52197266 C6.73766998 84.59405914 6.73071106 83.66614563 6.72354126 82.71011353 C6.72453827 81.70491669 6.72553528 80.69971985 6.7265625 79.6640625 C6.70627269 77.54686972 6.68542189 75.42968226 6.6640625 73.3125 C6.64144949 69.96577478 6.62498997 66.61925906 6.61914062 63.27246094 C6.60963304 60.04844019 6.57587279 56.82537081 6.5390625 53.6015625 C6.54663071 52.09983994 6.54663071 52.09983994 6.55435181 50.56777954 C6.51565389 45.29265785 6.51565389 45.29265785 4.52880859 40.52490234 C-1.93051204 36.62985343 -8.57651554 35.55397422 -16.00805664 35.56762695 C-17.28286896 35.55233948 -17.28286896 35.55233948 -18.58343506 35.53674316 C-21.3590778 35.50683785 -24.1343742 35.49738192 -26.91015625 35.48828125 C-28.84786607 35.47141787 -30.78556507 35.45326541 -32.72325134 35.43388367 C-37.79809179 35.38655772 -42.87288832 35.35663601 -47.94787598 35.33044434 C-53.13656281 35.30055067 -58.32509857 35.25405073 -63.51367188 35.20898438 C-73.67570194 35.12314945 -83.83776326 35.05571638 -94 35 C-87.8338314 18.76560756 -72.84963676 6.38736185 -57.3828125 -0.64453125 C-39.40661662 -7.71679879 -17.77517077 -7.76189604 0 0 Z " fill="#16BDD8" transform="translate(452,83)"/>
<path d="M0 0 C7.26 0 14.52 0 22 0 C22.37323551 11.57030066 22.37323551 11.57030066 20.4765625 13.75390625 C19.98929687 14.16511719 19.50203125 14.57632813 19 15 C19.07606836 17.13803054 19.07606836 17.13803054 20 19 C20.66 19.33 21.32 19.66 22 20 C22 25.28 22 30.56 22 36 C17.38 36 12.76 36 8 36 C8 43.92 8 51.84 8 60 C9.65 60.66 11.3 61.32 13 62 C16.49060815 65.26651973 17.93426299 68.17171372 18.3125 72.9375 C18.209375 73.948125 18.10625 74.95875 18 76 C18.62777344 76.23589844 19.25554687 76.47179687 19.90234375 76.71484375 C24.20310033 78.49914251 28.36903438 80.54105417 32.5625 82.5625 C41.45195209 86.82049243 50.38324939 90.96506283 59.40234375 94.94140625 C62.28748136 96.21554121 65.12563946 97.54433522 67.94140625 98.96484375 C75.00273286 102.38311492 79.58294399 103.65951182 87.28125 101.6484375 C90 101 90 101 96 101 C96 93.74 96 86.48 96 79 C99.3 79 102.6 79 106 79 C106 88.24 106 97.48 106 107 C100.54309931 108.8189669 96.14242697 110.22659062 90.66894531 111.22802734 C84.27996826 112.35448216 84.27996826 112.35448216 79.1640625 116.046875 C78.17401621 118.56853136 77.80805061 120.29866351 78 123 C79.65389142 126.4416147 79.65389142 126.4416147 82 129 C82 129.66 82 130.32 82 131 C83.10214844 130.56429687 84.20429688 130.12859375 85.33984375 129.6796875 C93.35348582 126.52778543 101.38445036 123.44337494 109.5 120.5625 C110.58462524 120.17457275 110.58462524 120.17457275 111.69116211 119.77880859 C116.75387814 118 116.75387814 118 119 118 C119 121.63 119 125.26 119 129 C117.30875 129.495 115.6175 129.99 113.875 130.5 C106.25686373 132.8284669 98.80430604 135.57581494 91.34130859 138.35742188 C90.42043457 138.69837891 89.49956055 139.03933594 88.55078125 139.390625 C87.72231689 139.70032227 86.89385254 140.01001953 86.0402832 140.32910156 C84 141 84 141 82 141 C81.938125 141.53625 81.87625 142.0725 81.8125 142.625 C79.96673152 148.02032325 75.99379839 151.54239392 71 154 C65.17899782 154.8086749 59.78339586 154.84476646 54.4375 152.3125 C49.53772442 147.66399497 45.7679246 143.2450491 45.5 136.3125 C45.64186596 130.30979666 47.88372832 126.29143217 52 122 C56.92506402 118.33153668 61.98085297 117.42993907 68 117 C68.66 115.02 69.32 113.04 70 111 C69.27409668 110.65219482 68.54819336 110.30438965 67.80029297 109.94604492 C64.49161283 108.36038255 61.18330326 106.77394852 57.875 105.1875 C56.73289062 104.64029297 55.59078125 104.09308594 54.4140625 103.52929688 C52.75117188 102.73168945 52.75117188 102.73168945 51.0546875 101.91796875 C50.03874512 101.43094482 49.02280273 100.9439209 47.97607422 100.44213867 C46.99396973 99.96623291 46.01186523 99.49032715 45 99 C43.35257813 98.23042969 43.35257813 98.23042969 41.671875 97.4453125 C39 96 39 96 38.1953125 93.95703125 C38.13020833 91.97135417 38.06510417 89.98567708 38 88 C36.515 87.505 36.515 87.505 35 87 C35 88.98 35 90.96 35 93 C30.33238638 92.4479918 26.88973683 91.13738528 22.75 88.9375 C19.05954397 86.76517359 19.05954397 86.76517359 15 86 C14.21625 86.78375 13.4325 87.5675 12.625 88.375 C8.65071339 92.34928661 5.85618668 93.3140477 0.25 93.4375 C-5.73224241 93.32077332 -9.62680008 92.12089992 -14 88 C-18.21682512 82.83438923 -18.62583303 78.41309511 -18.38671875 71.80859375 C-17.68956465 66.74542406 -15.2272769 64.19410725 -11.6875 60.75 C-9 59 -9 59 -5.25 57.9375 C-4.1775 57.628125 -3.105 57.31875 -2 57 C-1.13580777 54.40742331 -0.82419068 52.65962293 -0.68359375 49.98828125 C-0.62075195 48.85229492 -0.62075195 48.85229492 -0.55664062 47.69335938 C-0.51732422 46.90767578 -0.47800781 46.12199219 -0.4375 45.3125 C-0.37272461 44.11657227 -0.37272461 44.11657227 -0.30664062 42.89648438 C-0.20072632 40.93118553 -0.09987449 38.96561504 0 37 C-4.58458854 36.9937491 -9.16602103 37.05323516 -13.75 37.125 C-15.05195313 37.12242187 -16.35390625 37.11984375 -17.6953125 37.1171875 C-21.22885103 37.19004396 -24.53140715 37.31681412 -28 38 C-30.81462764 40.70899662 -30.81462764 40.70899662 -32 44 C-36.56372144 47.40041989 -40.02494884 48.68021991 -45.73046875 48.37890625 C-51.21828159 47.46269653 -55.44687084 45.10420095 -59 40.8125 C-61.6129687 36.68489521 -61.93560359 32.74732191 -61 28 C-58.48951416 23.07200928 -55.12528871 19.0417629 -49.75 17.25 C-39.36285714 16.30571429 -39.36285714 16.30571429 -34.6875 18.6875 C-32.04930492 20.95757483 -29.9644421 23.12889232 -28 26 C-28 26.66 -28 27.32 -28 28 C-18.76 28 -9.52 28 0 28 C0 18.76 0 9.52 0 0 Z " fill="#052D5A" transform="translate(221,216)"/>
<path d="M0 0 C6.93 0 13.86 0 21 0 C21 9.24 21 18.48 21 28 C25.3725 27.95875 29.745 27.9175 34.25 27.875 C35.62317383 27.87741699 36.99634766 27.87983398 38.41113281 27.88232422 C41.70014537 27.80475777 44.77332821 27.65633783 48 27 C50.78758887 24.28412698 50.78758887 24.28412698 52 21 C57.02087522 17.10626004 61.02083193 16.35682436 67.34765625 16.6171875 C72.69480625 17.38894111 75.74693249 19.65054269 79.4375 23.625 C81.5566208 28.20230092 81.80023162 32.03694732 81 37 C78.50665497 41.98669007 75.00649051 45.49675474 70 48 C64.01234619 48.63413034 59.33537827 47.97549942 54 45 C50.37621878 41.92766374 49.16726269 40.66905076 48 36 C38.76 36 29.52 36 20 36 C20.495 46.395 20.495 46.395 21 57 C23.97 57.66 26.94 58.32 30 59 C34.37925916 61.6275555 37.2353276 65.20613058 39 70 C40.01310449 75.68975853 39.0179478 80.27051331 36.2109375 85.27734375 C33.77418368 88.74382257 30.46907299 90.68728467 27 93 C19.38236889 93.88529226 13.16302115 93.76233452 7 89 C6.67 88.34 6.34 87.68 6 87 C-1.04004412 87.38834755 -6.58652784 90.43976757 -12.8125 93.5625 C-14.87987939 94.58793034 -16.94881278 95.61023559 -19.01953125 96.62890625 C-19.92807861 97.08338135 -20.83662598 97.53785645 -21.77270508 98.00610352 C-24 99 -24 99 -26 99 C-26 95.7 -26 92.4 -26 89 C-24.28993561 88.13531248 -22.57954473 87.27126566 -20.86767578 86.41015625 C-19.40745192 85.67497523 -17.94880103 84.93666205 -16.49169922 84.1953125 C-12.26703903 82.06381765 -8.04100606 80.21112885 -3.625 78.5 C-0.19022642 77.07928284 -0.19022642 77.07928284 1.8671875 74.19921875 C2.27637312 72.18815507 2.27637312 72.18815507 2.48046875 70.1328125 C3.60179479 65.52947403 7.73603698 62.26396302 11 59 C11.08713831 57.29227642 11.10700007 55.58101351 11.09765625 53.87109375 C11.09443359 52.83662109 11.09121094 51.80214844 11.08789062 50.73632812 C11.07951172 49.64771484 11.07113281 48.55910156 11.0625 47.4375 C11.05798828 46.34501953 11.05347656 45.25253906 11.04882812 44.12695312 C11.0369984 41.41794568 11.01906231 38.7089662 11 36 C7.37 36 3.74 36 0 36 C-0.33 30.72 -0.66 25.44 -1 20 C0.32 19.34 1.64 18.68 3 18 C2.42655063 15.13275314 2.1385485 14.1385485 0 12 C-0.27783543 7.98805634 -0.0856495 4.02552638 0 0 Z " fill="#077FBE" transform="translate(460,216)"/>
<path d="M0 0 C3.42642546 0.58015143 6.26252664 1.43942517 9.37890625 2.96875 C10.20769287 3.37061523 11.03647949 3.77248047 11.89038086 4.18652344 C12.77218018 4.6199707 13.65397949 5.05341797 14.5625 5.5 C16.44968777 6.41318196 18.33773082 7.32459819 20.2265625 8.234375 C21.18594727 8.69650391 22.14533203 9.15863281 23.13378906 9.63476562 C29.17460196 12.51212727 35.28046544 15.24177927 41.40234375 17.94140625 C44.28748136 19.21554121 47.12563946 20.54433522 49.94140625 21.96484375 C57.00273286 25.38311492 61.58294399 26.65951182 69.28125 24.6484375 C72 24 72 24 78 24 C78 16.74 78 9.48 78 2 C81.3 2 84.6 2 88 2 C88 11.24 88 20.48 88 30 C82.54309931 31.8189669 78.14242697 33.22659062 72.66894531 34.22802734 C66.27996826 35.35448216 66.27996826 35.35448216 61.1640625 39.046875 C60.17401621 41.56853136 59.80805061 43.29866351 60 46 C61.65389142 49.4416147 61.65389142 49.4416147 64 52 C64 52.66 64 53.32 64 54 C65.10214844 53.56429687 66.20429688 53.12859375 67.33984375 52.6796875 C75.35348582 49.52778543 83.38445036 46.44337494 91.5 43.5625 C92.2230835 43.30388184 92.94616699 43.04526367 93.69116211 42.77880859 C98.75387814 41 98.75387814 41 101 41 C101 44.63 101 48.26 101 52 C99.30875 52.495 97.6175 52.99 95.875 53.5 C88.25686373 55.8284669 80.80430604 58.57581494 73.34130859 61.35742188 C72.42043457 61.69837891 71.49956055 62.03933594 70.55078125 62.390625 C69.72231689 62.70032227 68.89385254 63.01001953 68.0402832 63.32910156 C66 64 66 64 64 64 C63.938125 64.53625 63.87625 65.0725 63.8125 65.625 C61.96673152 71.02032325 57.99379839 74.54239392 53 77 C47.17899782 77.8086749 41.78339586 77.84476646 36.4375 75.3125 C31.53772442 70.66399497 27.7679246 66.2450491 27.5 59.3125 C27.64186596 53.30979666 29.88372832 49.29143217 34 45 C38.92506402 41.33153668 43.98085297 40.42993907 50 40 C50.66 38.02 51.32 36.04 52 34 C51.27409668 33.65219482 50.54819336 33.30438965 49.80029297 32.94604492 C46.49161283 31.36038255 43.18330326 29.77394852 39.875 28.1875 C38.73289062 27.64029297 37.59078125 27.09308594 36.4140625 26.52929688 C35.30546875 25.99755859 34.196875 25.46582031 33.0546875 24.91796875 C32.03874512 24.43094482 31.02280273 23.9439209 29.97607422 23.44213867 C28.99396973 22.96623291 28.01186523 22.49032715 27 22 C25.35257812 21.23042969 25.35257812 21.23042969 23.671875 20.4453125 C21 19 21 19 20.1953125 16.95703125 C20.13020833 14.97135417 20.06510417 12.98567708 20 11 C19.01 10.67 18.02 10.34 17 10 C17 11.98 17 13.96 17 16 C12.42619624 15.43084601 8.81896167 14.21978812 4.6875 12.1875 C3.63949219 11.68605469 2.59148437 11.18460937 1.51171875 10.66796875 C-1 9 -1 9 -1.9140625 6.97265625 C-2.03112904 4.28544713 -1.13542853 2.4044369 0 0 Z " fill="#082D59" transform="translate(239,293)"/>
<path d="M0 0 C1.40654181 0.00032605 1.40654181 0.00032605 2.84149861 0.00065869 C3.92163315 -0.0039401 5.00176768 -0.0085389 6.11463356 -0.01327705 C7.90904692 -0.00556171 7.90904692 -0.00556171 9.73971105 0.0023095 C11.00308773 -0.00010491 12.26646442 -0.00251933 13.56812525 -0.00500691 C17.08655136 -0.01144397 20.60486308 -0.00533411 24.12328172 0.00275737 C27.91344829 0.00931683 31.7036017 0.00438965 35.49376988 0.00087517 C42.92445311 -0.00417561 50.35509196 0.00148629 57.78576967 0.01072548 C66.4355773 0.02109479 75.08537525 0.02103965 83.73518792 0.0205529 C99.16958669 0.02005181 114.60396477 0.02922516 130.03835607 0.04373711 C145.01947969 0.05781564 160.00058511 0.06490833 174.98171544 0.06424493 C175.9037662 0.06420497 176.82581697 0.06416501 177.77580866 0.06412385 C178.69625331 0.06408349 179.61669796 0.06404314 180.56503487 0.06400156 C197.60843054 0.06331158 214.65181847 0.06920386 231.69521163 0.07815478 C237.72573869 0.08117149 243.75626432 0.08223439 249.78679204 0.08268708 C257.13834468 0.08336944 264.48988425 0.08783697 271.84143135 0.09701989 C275.59298675 0.10163566 279.34452545 0.1046842 283.09608388 0.10342568 C287.16204459 0.10212785 291.22795583 0.10857943 295.29391026 0.11583489 C297.07493929 0.11351199 297.07493929 0.11351199 298.8919487 0.11114216 C299.98251422 0.1143666 301.07307974 0.11759105 302.19669271 0.12091321 C303.13503666 0.12161763 304.07338061 0.12232206 305.04015923 0.12304783 C308.01279013 0.26075922 310.84712324 0.70711611 313.77077794 1.24954766 C313.77077794 1.90954766 313.77077794 2.56954766 313.77077794 3.24954766 C306.49145575 4.12164249 299.25470668 4.44873347 291.92906117 4.63370103 C281.50207528 4.89911235 271.07997691 5.21659935 260.6599381 5.68485039 C222.2305133 7.39236058 183.78895384 8.06342394 145.33031183 8.72974777 C138.92569502 8.841165 132.52119119 8.95791499 126.11672521 9.07767266 C57.32525809 10.36260256 57.32525809 10.36260256 24.36790586 10.4504258 C21.93877913 10.45706739 19.50965849 10.46667438 17.08055615 10.47942513 C13.81598714 10.49461724 10.55173111 10.49643929 7.28713536 10.4932 C6.33737262 10.49914555 5.38760987 10.5050911 4.40906644 10.51121682 C3.55347198 10.50699338 2.69787751 10.50276994 1.81635594 10.49841851 C0.70769815 10.49885942 0.70769815 10.49885942 -0.42335677 10.49930924 C-2.22922206 10.24954766 -2.22922206 10.24954766 -4.22922206 8.24954766 C-4.47922206 5.24954766 -4.47922206 5.24954766 -4.22922206 2.24954766 C-2.22922206 0.24954766 -2.22922206 0.24954766 0 0 Z " fill="#2D8ABF" transform="translate(892.2292220592499,262.7504523396492)"/>
<path d="M0 0 C2.97 0 5.94 0 9 0 C9.33 6.93 9.66 13.86 10 21 C12.18625 21.515625 14.3725 22.03125 16.625 22.5625 C17.85476563 22.85253906 19.08453125 23.14257812 20.3515625 23.44140625 C27.87752346 24.59366794 33.06076823 21.73476411 39.625 18.4375 C41.30107355 17.59563074 42.98065235 16.76069511 44.6640625 15.93359375 C45.40092285 15.56290771 46.1377832 15.19222168 46.89697266 14.81030273 C49 14 49 14 53 14 C53 16.97 53 19.94 53 23 C50.5664433 24.3410005 48.12864699 25.67294856 45.6875 27 C44.99720703 27.3815625 44.30691406 27.763125 43.59570312 28.15625 C38.33984375 31 38.33984375 31 35 31 C35.66 33.31 36.32 35.62 37 38 C37.64066406 38.09796875 38.28132813 38.1959375 38.94140625 38.296875 C46.45098873 39.59510386 52.27435881 41.16433512 56.9375 47.625 C59.60328906 52.34071925 59.79263425 56.70983431 59 62 C57.21984261 67.4451873 53.611739 70.78226393 49 74 C43.06170081 75.97943306 36.35116354 76.04496157 30.625 73.5 C28.36322167 71.3459254 27.21305893 69.75301651 25.6015625 67.171875 C21.51769201 61.66834355 16.02846796 59.99283697 9.75 57.75 C8.66847656 57.34265625 7.58695312 56.9353125 6.47265625 56.515625 C4.34267548 55.71399171 2.20926515 54.9214024 0.07226562 54.13867188 C-4.32057113 52.51055755 -8.65823523 50.75930245 -13 49 C-13 45.7 -13 42.4 -13 39 C-8.78202797 39.67519326 -5.12992119 41.06013004 -1.1875 42.6875 C4.48879481 45.00712255 10.19168002 47.23315886 15.9375 49.375 C16.99384644 49.76884888 16.99384644 49.76884888 18.0715332 50.1706543 C19.71385457 50.78178399 21.35684861 51.39110553 23 52 C23.28875 51.236875 23.5775 50.47375 23.875 49.6875 C25 47 25 47 27 44 C26.65589375 40.64496407 25.86808649 37.81094478 24 35 C21.52013772 33.89689227 21.52013772 33.89689227 18.5546875 33.296875 C17.1003833 32.94641113 17.1003833 32.94641113 15.61669922 32.58886719 C14.38193848 32.31204102 13.14717773 32.03521484 11.875 31.75 C7.95625 30.8425 4.0375 29.935 0 29 C0 19.43 0 9.86 0 0 Z " fill="#0781C0" transform="translate(375,295)"/>
<path d="M0 0 C19.47 0 38.94 0 59 0 C59 4.62 59 9.24 59 14 C52.07 14 45.14 14 38 14 C38 37.1 38 60.2 38 84 C32.39 84 26.78 84 21 84 C21 60.9 21 37.8 21 14 C14.07 14 7.14 14 0 14 C0 9.38 0 4.76 0 0 Z " fill="#072C57" transform="translate(593,140)"/>
<path d="M0 0 C1.2698877 -0.03867188 1.2698877 -0.03867188 2.56542969 -0.078125 C8.22616491 -0.09578031 13.45584233 0.56704084 17.875 4.375 C22.10117625 10.14371652 22.42209287 14.66310952 22.265625 21.68359375 C22.25996521 22.65031509 22.25430542 23.61703644 22.24847412 24.61305237 C22.22620531 27.68005319 22.17602649 30.74585636 22.125 33.8125 C22.10492273 35.90037367 22.08667412 37.98826578 22.0703125 40.07617188 C22.02637159 45.17623792 21.95740983 50.27541638 21.875 55.375 C17.585 55.375 13.295 55.375 8.875 55.375 C8.545 54.385 8.215 53.395 7.875 52.375 C7.33230469 52.65214844 6.78960938 52.92929688 6.23046875 53.21484375 C5.15732422 53.75818359 5.15732422 53.75818359 4.0625 54.3125 C3.00095703 54.85197266 3.00095703 54.85197266 1.91796875 55.40234375 C-4.04953914 58.24347083 -9.70473206 58.12885395 -15.9375 56.1875 C-19.71531161 54.03933261 -22.31228004 51.83497788 -23.70703125 47.61328125 C-24.88825418 41.28766689 -25.14530227 34.65105892 -22.5 28.75 C-18.29907509 24.54907509 -14.60127267 23.19475483 -8.7265625 23.08203125 C-6.73416312 23.1018233 -4.74186726 23.13738205 -2.75 23.1875 C-1.21666016 23.20780273 -1.21666016 23.20780273 0.34765625 23.22851562 C2.85732049 23.26369783 5.3658809 23.31292461 7.875 23.375 C7.78791331 21.91554712 7.67973093 20.45734132 7.5625 19 C7.50449219 18.18789062 7.44648437 17.37578125 7.38671875 16.5390625 C7.04509472 13.99578662 7.04509472 13.99578662 3.875 12.375 C1.25898445 12.09900049 1.25898445 12.09900049 -1.66796875 12.1796875 C-2.74111328 12.18613281 -3.81425781 12.19257813 -4.91992188 12.19921875 C-6.03947266 12.21597656 -7.15902344 12.23273438 -8.3125 12.25 C-9.44365234 12.25902344 -10.57480469 12.26804688 -11.74023438 12.27734375 C-14.53536828 12.30093138 -17.33007845 12.333847 -20.125 12.375 C-20.125 9.075 -20.125 5.775 -20.125 2.375 C-13.40065384 0.58184102 -6.9264317 0.10174707 0 0 Z " fill="#052C58" transform="translate(867.125,167.625)"/>
<path d="M0 0 C0.7734375 -0.02449219 1.546875 -0.04898438 2.34375 -0.07421875 C8.0690967 -0.10303761 12.50051106 1.09949039 17.25 4.375 C21.93048111 10.04084556 23.53406897 15.72627472 23.5 23 C23.50773437 24.65902344 23.50773437 24.65902344 23.515625 26.3515625 C23.25 29.375 23.25 29.375 21.25 33.375 C11.35 33.375 1.45 33.375 -8.75 33.375 C-7.93805293 42.01018594 -7.93805293 42.01018594 -4.3359375 43.9296875 C0.67256191 44.55165802 5.58368479 44.584564 10.625 44.5 C11.64722656 44.49097656 12.66945313 44.48195312 13.72265625 44.47265625 C16.2318724 44.44920563 18.74096716 44.41333836 21.25 44.375 C21.25 47.675 21.25 50.975 21.25 54.375 C15.38580505 57.06228027 9.78933065 56.78079369 3.4375 56.8125 C2.28701172 56.84537109 1.13652344 56.87824219 -0.04882812 56.91210938 C-7.29566686 56.95779145 -12.18199531 56.18019074 -17.75 51.375 C-24.27107657 44.85392343 -24.13669419 36.76158401 -24.1875 28.0625 C-24.22037109 27.08087891 -24.25324219 26.09925781 -24.28710938 25.08789062 C-24.33961432 17.87562029 -22.84171917 12.37768692 -18.75 6.375 C-15.6875 3.875 -15.6875 3.875 -12.75 2.375 C-12.20988281 2.02179688 -11.66976563 1.66859375 -11.11328125 1.3046875 C-7.45872334 -0.1329733 -3.89229983 0.00635997 0 0 Z " fill="#052D59" transform="translate(1299.75,167.625)"/>
<path d="M0 0 C4.01148779 2.49470634 6.41584254 5.82565263 7.8828125 10.2265625 C7.96931834 11.71500966 8.00051423 13.20704507 7.99633789 14.69799805 C7.99626236 15.59870529 7.99618683 16.49941254 7.99610901 17.42741394 C7.99094772 18.39625015 7.98578644 19.36508636 7.98046875 20.36328125 C7.9790538 21.35785843 7.97763885 22.35243561 7.97618103 23.37715149 C7.97058011 26.55615232 7.95802746 29.73508293 7.9453125 32.9140625 C7.94029762 35.06835836 7.93573469 37.22265532 7.93164062 39.37695312 C7.92061037 44.66018334 7.90334512 49.94336101 7.8828125 55.2265625 C3.2628125 55.2265625 -1.3571875 55.2265625 -6.1171875 55.2265625 C-6.13177002 54.06608398 -6.14635254 52.90560547 -6.16137695 51.70996094 C-6.21938691 47.40089232 -6.29661957 43.0923448 -6.37963867 38.78369141 C-6.41287534 36.91951968 -6.44091123 35.05524763 -6.46362305 33.19091797 C-6.49719238 30.50965659 -6.54950859 27.82931354 -6.60546875 25.1484375 C-6.61185867 24.31600525 -6.6182486 23.483573 -6.62483215 22.62591553 C-6.71409574 19.10614623 -6.7892961 16.81671 -8.52099609 13.69995117 C-10.57887738 11.80039266 -11.6561989 11.71721046 -14.4296875 11.7890625 C-15.53763672 11.79099609 -15.53763672 11.79099609 -16.66796875 11.79296875 C-19.82700068 12.35222321 -22.28104109 13.75923797 -25.1171875 15.2265625 C-25.14224365 16.40275146 -25.1672998 17.57894043 -25.19311523 18.79077148 C-25.28701556 23.13870872 -25.38727798 27.48647966 -25.48950195 31.83422852 C-25.53291683 33.71895468 -25.57458693 35.60372186 -25.61450195 37.48852539 C-25.67204643 40.19169499 -25.73578554 42.89465686 -25.80078125 45.59765625 C-25.82584999 46.86953041 -25.82584999 46.86953041 -25.85142517 48.167099 C-26.00331579 54.11269079 -26.00331579 54.11269079 -27.1171875 55.2265625 C-31.4071875 55.2265625 -35.6971875 55.2265625 -40.1171875 55.2265625 C-40.4471875 37.0765625 -40.7771875 18.9265625 -41.1171875 0.2265625 C-36.8271875 0.2265625 -32.5371875 0.2265625 -28.1171875 0.2265625 C-27.7871875 1.8765625 -27.4571875 3.5265625 -27.1171875 5.2265625 C-26.48554687 4.7934375 -25.85390625 4.3603125 -25.203125 3.9140625 C-17.4353208 -0.92122772 -8.96544443 -3.27519926 0 0 Z " fill="#042B58" transform="translate(749.1171875,168.7734375)"/>
<path d="M0 0 C1.93166016 0.01740234 1.93166016 0.01740234 3.90234375 0.03515625 C5.19269531 0.04417969 6.48304687 0.05320313 7.8125 0.0625 C8.81152344 0.07410156 9.81054688 0.08570313 10.83984375 0.09765625 C10.85442627 1.25813477 10.86900879 2.41861328 10.8840332 3.61425781 C10.94204316 7.92332643 11.01927582 12.23187395 11.10229492 16.54052734 C11.13553159 18.40469907 11.16356748 20.26897112 11.1862793 22.13330078 C11.21984863 24.81456216 11.27216484 27.49490521 11.328125 30.17578125 C11.33451492 31.0082135 11.34090485 31.84064575 11.3474884 32.69830322 C11.43492341 36.14596944 11.54751241 38.52417111 13.12963867 41.62792969 C15.5305252 43.69121833 17.76637873 43.5787438 20.83984375 43.4375 C23.61869277 42.96531276 25.5597566 41.70712953 27.83984375 40.09765625 C28.49984375 40.09765625 29.15984375 40.09765625 29.83984375 40.09765625 C29.83984375 26.89765625 29.83984375 13.69765625 29.83984375 0.09765625 C34.45984375 0.09765625 39.07984375 0.09765625 43.83984375 0.09765625 C43.83984375 17.91765625 43.83984375 35.73765625 43.83984375 54.09765625 C39.54984375 54.09765625 35.25984375 54.09765625 30.83984375 54.09765625 C30.83984375 52.77765625 30.83984375 51.45765625 30.83984375 50.09765625 C30.08058594 50.44699219 29.32132813 50.79632813 28.5390625 51.15625 C27.54519531 51.61128906 26.55132813 52.06632812 25.52734375 52.53515625 C24.54121094 52.98761719 23.55507812 53.44007813 22.5390625 53.90625 C17.23080265 56.24925905 12.28536319 57.1880105 6.6796875 55.4140625 C1.89186198 53.25730371 -0.75806842 50.90183191 -3.16015625 46.09765625 C-4.28910093 41.06417176 -4.30564507 36.14426847 -4.29296875 31.015625 C-4.29392548 30.16084061 -4.2948822 29.30605621 -4.29586792 28.42536926 C-4.29654547 26.62936326 -4.29472097 24.83335475 -4.29052734 23.03735352 C-4.28513994 20.27680044 -4.29050356 17.51640764 -4.296875 14.75585938 C-4.29621479 13.00911422 -4.29493481 11.26236917 -4.29296875 9.515625 C-4.29499298 8.68653122 -4.29701721 7.85743744 -4.29910278 7.0032196 C-4.27065493 0.13197327 -4.27065493 0.13197327 0 0 Z " fill="#052C58" transform="translate(1184.16015625,168.90234375)"/>
<path d="M0 0 C4.62 0 9.24 0 14 0 C14.76983502 5.60969946 15.10533496 11.1497401 15.2109375 16.80859375 C15.2252179 17.50586578 15.23949829 18.20313782 15.25421143 18.92153931 C15.31217351 21.83817652 15.36694054 24.75460987 15.40136719 27.67163086 C15.4288349 29.82192619 15.47461876 31.97119175 15.5234375 34.12109375 C15.54325684 35.3939624 15.56307617 36.66683105 15.58349609 37.97827148 C15.72094238 38.97544189 15.85838867 39.9726123 16 41 C19.57932709 43.38621806 20.77322084 43.4785033 25 43 C27.64 41.68 30.28 40.36 33 39 C33.33 26.46 33.66 13.92 34 1 C38.29 1 42.58 1 47 1 C47.93988755 7.32228855 48.13181516 13.45773358 48.09765625 19.84375 C48.0962413 20.85344849 48.09482635 21.86314697 48.09336853 22.90344238 C48.08780781 26.10232611 48.0752627 29.30113772 48.0625 32.5 C48.05747992 34.67968648 48.0529179 36.85937407 48.04882812 39.0390625 C48.03785127 44.35940244 48.02061399 49.67968903 48 55 C43.71 55 39.42 55 35 55 C35 53.35 35 51.7 35 50 C34.25234375 50.34933594 33.5046875 50.69867188 32.734375 51.05859375 C31.74953125 51.51363281 30.7646875 51.96867187 29.75 52.4375 C28.77546875 52.88996094 27.8009375 53.34242188 26.796875 53.80859375 C20.80886386 56.35935269 15.61741303 56.84289572 9.3125 54.8125 C4.92591008 52.41229042 2.86308162 50.01873981 0.90673828 45.44287109 C-0.27204673 40.96704282 -0.24887751 36.83310137 -0.1953125 32.2265625 C-0.1924826 31.3028183 -0.18965271 30.3790741 -0.18673706 29.42733765 C-0.17559179 26.49309024 -0.15049765 23.5591543 -0.125 20.625 C-0.11496289 18.62891068 -0.10583832 16.63281654 -0.09765625 14.63671875 C-0.07567097 9.75769351 -0.04118017 4.87889946 0 0 Z " fill="#052C58" transform="translate(1030,169)"/>
<path d="M0 0 C3.3 0 6.6 0 10 0 C10 21.12 10 42.24 10 64 C11.65 64.66 13.3 65.32 15 66 C18.97570141 69.50240362 22.5512407 72.83679419 23.3203125 78.2578125 C23.59597144 84.26717742 22.78481043 89.20235298 19 94 C14.68825515 97.91268945 10.03097569 99.80552285 4.23046875 100.125 C-0.51239875 99.85920007 -4.23684123 98.62241882 -7.76171875 95.37890625 C-11.19488016 91.51348239 -13.76015571 88.03867649 -14.375 82.8125 C-13.61792417 75.11556244 -10.62325329 69.87746206 -4.68359375 64.99609375 C-3 64 -3 64 0 64 C0 42.88 0 21.76 0 0 Z " fill="#092E5A" transform="translate(346,295)"/>
<path d="M0 0 C4.29 0 8.58 0 13 0 C15.81668952 6.89216508 18.39271871 13.81327323 20.75 20.875 C21.06582031 21.79796875 21.38164063 22.7209375 21.70703125 23.671875 C22.00480469 24.56132812 22.30257812 25.45078125 22.609375 26.3671875 C22.87717773 27.16237793 23.14498047 27.95756836 23.42089844 28.77685547 C24 31 24 31 24 35 C24.66 35 25.32 35 26 35 C26.26804443 34.14768799 26.53608887 33.29537598 26.81225586 32.41723633 C28.02244703 28.93541809 29.45020455 25.66618344 31.00390625 22.32421875 C31.28725327 21.71359085 31.57060028 21.10296295 31.86253357 20.47383118 C32.4568498 19.19496521 33.0527423 17.91683068 33.65014648 16.6394043 C34.56715953 14.67753133 35.47825617 12.71298871 36.38867188 10.74804688 C40.86088839 1.13911161 40.86088839 1.13911161 42 0 C43.99799572 -0.09873816 45.99957158 -0.12971799 48 -0.125 C49.093125 -0.12757813 50.18625 -0.13015625 51.3125 -0.1328125 C54 0 54 0 55 1 C55.16058506 3.34366354 55.25968507 5.66093328 55.31640625 8.0078125 C55.33718735 8.72548798 55.35796844 9.44316345 55.37937927 10.18258667 C55.42276361 11.71427218 55.46379016 13.24602595 55.50268555 14.77783203 C55.56101966 17.06691033 55.62647922 19.35568855 55.69335938 21.64453125 C55.9586539 31.09887353 56.0548367 40.54197547 56 50 C52.7 50 49.4 50 46 50 C45.67 37.46 45.34 24.92 45 12 C43.824375 14.68125 42.64875 17.3625 41.4375 20.125 C37.86603663 28.2139019 34.04499972 36.13753179 30 44 C26.37 44 22.74 44 19 44 C17.42931142 39.76567272 15.86284151 35.52981835 14.30029297 31.29248047 C13.76792764 29.85064416 13.23440373 28.40923508 12.69970703 26.96826172 C11.93218234 24.8992202 11.1688116 22.82868749 10.40625 20.7578125 C10.16563843 20.11192169 9.92502686 19.46603088 9.67712402 18.80056763 C8 14.22774341 8 14.22774341 8 12 C7.34 12 6.68 12 6 12 C6.03480469 12.7321875 6.06960938 13.464375 6.10546875 14.21875 C6.40729453 26.29178103 4.6462816 38.06445843 3 50 C-0.3 50 -3.6 50 -7 50 C-7.123768 43.87935056 -6.7515755 38.19447268 -5.72265625 32.16796875 C-5.59185165 31.36893631 -5.46104706 30.56990387 -5.32627869 29.74665833 C-4.91171111 27.22577848 -4.48708059 24.70671037 -4.0625 22.1875 C-3.78128011 20.47991985 -3.50067593 18.77223819 -3.22070312 17.06445312 C-2.95107032 15.4322008 -2.68090685 13.80003603 -2.41015625 12.16796875 C-2.28407486 11.40751755 -2.15799347 10.64706635 -2.02809143 9.86357117 C-1.46546263 6.52940379 -0.82083908 3.28335631 0 0 Z " fill="#0899CC" transform="translate(578,249)"/>
<path d="M0 0 C0 3.63 0 7.26 0 11 C-0.97582031 10.97679687 -1.95164062 10.95359375 -2.95703125 10.9296875 C-4.22933594 10.91164062 -5.50164063 10.89359375 -6.8125 10.875 C-8.07707031 10.85179687 -9.34164062 10.82859375 -10.64453125 10.8046875 C-14.1338024 10.72418082 -14.1338024 10.72418082 -17 13 C-17.58592634 16.11610554 -17.58592634 16.11610554 -17.6875 19.625 C-17.790625 21.72875 -17.89375 23.8325 -18 26 C-13.38 26 -8.76 26 -4 26 C-4 29.63 -4 33.26 -4 37 C-8.62 37 -13.24 37 -18 37 C-18 51.52 -18 66.04 -18 81 C-22.95 81 -27.9 81 -33 81 C-33 66.48 -33 51.96 -33 37 C-35.31 37 -37.62 37 -40 37 C-40 33.37 -40 29.74 -40 26 C-37.69 26 -35.38 26 -33 26 C-33.03480469 25.07058594 -33.06960938 24.14117187 -33.10546875 23.18359375 C-33.38603746 10.37095597 -33.38603746 10.37095597 -30 5 C-21.41113498 -3.14841041 -11.03119501 -1.73038353 0 0 Z " fill="#082F5C" transform="translate(803,143)"/>
<path d="M0 0 C2.64 0 5.28 0 8 0 C8.495 10.395 8.495 10.395 9 21 C13.455 21.99 13.455 21.99 18 23 C22.37925916 25.6275555 25.2353276 29.20613058 27 34 C28.01310449 39.68975853 27.0179478 44.27051331 24.2109375 49.27734375 C21.77418368 52.74382257 18.46907299 54.68728467 15 57 C7.38236889 57.88529226 1.16302115 57.76233452 -5 53 C-5.33 52.34 -5.66 51.68 -6 51 C-13.04004412 51.38834755 -18.58652784 54.43976757 -24.8125 57.5625 C-26.87987939 58.58793034 -28.94881278 59.61023559 -31.01953125 60.62890625 C-32.38235229 61.3106189 -32.38235229 61.3106189 -33.77270508 62.00610352 C-36 63 -36 63 -38 63 C-38 59.7 -38 56.4 -38 53 C-36.28993561 52.13531248 -34.57954473 51.27126566 -32.86767578 50.41015625 C-31.40745192 49.67497523 -29.94880103 48.93666205 -28.49169922 48.1953125 C-24.26703903 46.06381765 -20.04100606 44.21112885 -15.625 42.5 C-12.19022642 41.07928284 -12.19022642 41.07928284 -10.1328125 38.19921875 C-9.72362688 36.18815507 -9.72362688 36.18815507 -9.51953125 34.1328125 C-8.39820521 29.52947403 -4.26396302 26.26396302 -1 23 C-0.84259395 21.29436222 -0.74906608 19.58272756 -0.68359375 17.87109375 C-0.62075195 16.31938477 -0.62075195 16.31938477 -0.55664062 14.73632812 C-0.51732422 13.64771484 -0.47800781 12.55910156 -0.4375 11.4375 C-0.37272461 9.7987793 -0.37272461 9.7987793 -0.30664062 8.12695312 C-0.20017932 5.41810436 -0.09816484 2.70916008 0 0 Z " fill="#052A56" transform="translate(472,252)"/>
<path d="M0 0 C0.79067871 0.00837891 1.58135742 0.01675781 2.39599609 0.02539062 C7.86891485 0.13816455 12.85688616 0.75157738 18.125 2.3125 C18.125 5.6125 18.125 8.9125 18.125 12.3125 C16.47628906 12.30089844 14.82757812 12.28929687 13.12890625 12.27734375 C10.98177196 12.26796762 8.83463645 12.25886723 6.6875 12.25 C5.59888672 12.24162109 4.51027344 12.23324219 3.38867188 12.22460938 C1.83696289 12.21977539 1.83696289 12.21977539 0.25390625 12.21484375 C-0.70443115 12.20960693 -1.66276855 12.20437012 -2.65014648 12.19897461 C-4.84785339 12.0619687 -4.84785339 12.0619687 -5.875 13.3125 C-5.91580783 15.31208364 -5.91754356 17.31295254 -5.875 19.3125 C-2.28764568 20.84993757 1.19273848 21.84693577 5 22.6875 C11.49829035 24.29211469 16.0125538 25.92922737 20.5625 31.0625 C23.23264058 36.61639242 22.5758808 41.31572509 21 47.0625 C19.82960048 50.19615032 19.06520896 51.36937441 16.5625 53.75 C5.32182326 58.85939852 -7.09641298 58.15847252 -18.875 55.3125 C-19.535 54.9825 -20.195 54.6525 -20.875 54.3125 C-21 47.6875 -21 47.6875 -19.875 44.3125 C-19.22015625 44.3846875 -18.5653125 44.456875 -17.890625 44.53125 C-5.38381708 46.46074595 -5.38381708 46.46074595 6.125 43.3125 C6.3752157 40.22884129 6.3752157 40.22884129 6.125 37.3125 C1.78796901 34.7778715 -3.09661779 33.97991235 -7.94335938 32.90039062 C-13.16656302 31.67168949 -17.36225071 30.34688697 -20.6875 25.875 C-22.59666288 20.14751135 -23.54147888 13.68091475 -20.7734375 8.0859375 C-15.26356101 1.16176116 -8.4117552 -0.19170069 0 0 Z " fill="#062E5B" transform="translate(918.875,167.6875)"/>
<path d="M0 0 C1.0818457 0.0009668 1.0818457 0.0009668 2.18554688 0.00195312 C7.09168848 0.04155427 11.83009441 0.50142576 16.6875 1.1875 C16.87853946 8.93328163 16.24185064 16.56149033 15.515625 24.26367188 C15.31171272 26.44592537 15.12044485 28.62906198 14.9296875 30.8125 C14.80024536 32.21361266 14.67006311 33.61465719 14.5390625 35.015625 C14.42385254 36.2727832 14.30864258 37.52994141 14.18994141 38.82519531 C13.4983767 43.45310063 12.71313951 46.24075584 9.25 49.4375 C1.74575638 54.5623493 -9.70538494 52.56463841 -18.3125 51.1875 C-18.355221 49.52138095 -18.35313832 47.85367115 -18.3125 46.1875 C-16.22426625 44.09926625 -11.83384425 44.81527989 -8.9375 44.6875 C-3.04061687 44.48934009 -3.04061687 44.48934009 2.6875 43.1875 C3.3475 39.8875 4.0075 36.5875 4.6875 33.1875 C3.553125 33.8475 2.41875 34.5075 1.25 35.1875 C-3.32208416 37.45331162 -7.27379828 38.10955447 -12.3125 37.1875 C-15.70642454 35.52139159 -17.63623054 34.23264371 -19.6875 31.0625 C-21.36451995 23.34820825 -21.21154191 13.30843534 -17.2421875 6.296875 C-12.54009437 0.20485497 -7.24465302 -0.1210628 0 0 Z " fill="#0996CC" transform="translate(783.3125,262.8125)"/>
<path d="M0 0 C5.61 0 11.22 0 17 0 C17 27.72 17 55.44 17 84 C11.39 84 5.78 84 0 84 C0 56.28 0 28.56 0 0 Z " fill="#032C58" transform="translate(681,140)"/>
<path d="M0 0 C4.95 0 9.9 0 15 0 C15 5.94 15 11.88 15 18 C19.62 18 24.24 18 29 18 C29.125 26.75 29.125 26.75 28 29 C23.38 29 18.76 29 14 29 C14.11995169 32.93288412 14.2426272 36.86553463 14.37231445 40.7980957 C14.43687006 42.79303319 14.4967783 44.78811929 14.55664062 46.78320312 C14.59853516 48.03681641 14.64042969 49.29042969 14.68359375 50.58203125 C14.72025146 51.73936768 14.75690918 52.8967041 14.79467773 54.08911133 C14.88328509 57.0643446 14.88328509 57.0643446 16 60 C18.56893838 61.28446919 20.76576337 61.32977144 23.625 61.5625 C24.62789062 61.64628906 25.63078125 61.73007813 26.6640625 61.81640625 C27.43492188 61.87699219 28.20578125 61.93757813 29 62 C29 65.3 29 68.6 29 72 C25.2159909 73.26133637 21.6321504 73.26222833 17.6875 73.3125 C16.56698242 73.35600586 16.56698242 73.35600586 15.42382812 73.40039062 C10.16908614 73.46036573 7.02512505 72.68028421 3 69 C0.35723332 63.93384841 -0.42229941 59.82509065 -0.29296875 54.09765625 C-0.28872391 53.3750914 -0.28447906 52.65252655 -0.28010559 51.9080658 C-0.26346418 49.62581307 -0.22584248 47.34448067 -0.1875 45.0625 C-0.17243423 43.50457015 -0.15874916 41.9466263 -0.14648438 40.38867188 C-0.11360882 36.59209943 -0.0619309 32.79620513 0 29 C-2.64 29 -5.28 29 -8 29 C-8 25.37 -8 21.74 -8 18 C-5.36 18 -2.72 18 0 18 C0 12.06 0 6.12 0 0 Z " fill="#072D59" transform="translate(1143,151)"/>
<path d="M0 0 C5.61 0 11.22 0 17 0 C17 27.39 17 54.78 17 83 C11.39 83 5.78 83 0 83 C0 55.61 0 28.22 0 0 Z " fill="#062C58" transform="translate(569,140)"/>
<path d="M0 0 C4.62 0 9.24 0 14 0 C14 5.61 14 11.22 14 17 C18.62 17 23.24 17 28 17 C28 20.63 28 24.26 28 28 C23.38 28 18.76 28 14 28 C14.07401549 32.07595632 14.1568482 36.15022429 14.26245117 40.2253418 C14.29568549 41.61129377 14.32372226 42.99738061 14.34643555 44.38354492 C14.38000617 46.37706843 14.43388 48.37021741 14.48828125 50.36328125 C14.51446533 51.56251221 14.54064941 52.76174316 14.56762695 53.99731445 C14.75869225 56.97394116 14.75869225 56.97394116 16.36328125 58.8828125 C18.74903793 60.51127649 20.83099991 60.51947058 23.6875 60.6875 C24.68136719 60.75324219 25.67523437 60.81898438 26.69921875 60.88671875 C27.45847656 60.92410156 28.21773437 60.96148437 29 61 C29 64.3 29 67.6 29 71 C25.2159909 72.26133637 21.6321504 72.26222833 17.6875 72.3125 C16.56698242 72.35600586 16.56698242 72.35600586 15.42382812 72.40039062 C10.16908614 72.46036573 7.02512505 71.68028421 3 68 C0.35723332 62.93384841 -0.42229941 58.82509065 -0.29296875 53.09765625 C-0.28872391 52.3750914 -0.28447906 51.65252655 -0.28010559 50.9080658 C-0.26346418 48.62581307 -0.22584248 46.34448067 -0.1875 44.0625 C-0.17243423 42.50457015 -0.15874916 40.9466263 -0.14648438 39.38867188 C-0.11360882 35.59209943 -0.0619309 31.79620513 0 28 C-2.64 28 -5.28 28 -8 28 C-8 24.37 -8 20.74 -8 17 C-5.36 17 -2.72 17 0 17 C0 11.39 0 5.78 0 0 Z " fill="#032A55" transform="translate(952,152)"/>
<path d="M0 0 C0.74822021 0.00386719 1.49644043 0.00773438 2.26733398 0.01171875 C7.6461077 0.09582597 12.50336643 0.74188842 17.6875 2.25 C17.6875 5.55 17.6875 8.85 17.6875 12.25 C15.71716797 12.21519531 15.71716797 12.21519531 13.70703125 12.1796875 C11.97135987 12.16092349 10.23568232 12.14272396 8.5 12.125 C7.63568359 12.10824219 6.77136719 12.09148437 5.88085938 12.07421875 C1.39896113 12.0398747 -2.28880843 12.0154839 -6.3125 14.25 C-10.16569292 18.10319292 -9.47367644 23.43399476 -9.5 28.625 C-9.52126953 30.52378906 -9.52126953 30.52378906 -9.54296875 32.4609375 C-9.30480615 36.37649214 -8.70902569 39.58470002 -7.3125 43.25 C-4.31234088 44.25005304 -2.33826244 44.36575585 0.79296875 44.34765625 C2.26733398 44.34282227 2.26733398 44.34282227 3.77148438 44.33789062 C4.79564453 44.32951172 5.81980469 44.32113281 6.875 44.3125 C7.91076172 44.30798828 8.94652344 44.30347656 10.01367188 44.29882812 C12.5716392 44.28704026 15.12957686 44.26910482 17.6875 44.25 C18.1825 49.2 18.1825 49.2 18.6875 54.25 C7.55586515 58.23745129 -3.24507267 58.86979725 -14.3125 54.25 C-19.49576631 51.75435326 -21.31397201 49.05492379 -23.48339844 43.95605469 C-25.02466218 38.92561672 -24.84645617 33.90546776 -24.75 28.6875 C-24.75708984 27.60275391 -24.76417969 26.51800781 -24.77148438 25.40039062 C-24.71529984 18.2822428 -24.3030789 12.00089557 -19.69921875 6.2265625 C-19.13847656 5.78054687 -18.57773438 5.33453125 -18 4.875 C-17.44699219 4.41351563 -16.89398437 3.95203125 -16.32421875 3.4765625 C-11.11694271 0.3016408 -5.96848057 -0.07434877 0 0 Z " fill="#062E5B" transform="translate(1111.3125,167.75)"/>
<path d="M0 0 C9.57 0 19.14 0 29 0 C29.33 3.3 29.66 6.6 30 10 C32.97 10.495 32.97 10.495 36 11 C36 15.29 36 19.58 36 24 C38.475 24.99 38.475 24.99 41 26 C44.49060815 29.26651973 45.93426299 32.17171372 46.3125 36.9375 C46.1578125 38.4534375 46.1578125 38.4534375 46 40 C46.99 40.495 46.99 40.495 48 41 C47.34 41 46.68 41 46 41 C45.9175 41.680625 45.835 42.36125 45.75 43.0625 C44.35581002 48.52307741 42.31116692 51.93467688 38 55.4375 C32.93997291 57.9403091 27.48032846 57.82969116 22 57 C16.98956679 55.16473597 13.02350425 52.03891937 10.625 47.15625 C8.885688 41.15562359 8.98020978 35.11512047 11.6875 29.5 C15.22252704 25.67834915 17.66076756 23.37944919 22.75 21.9375 C23.8225 21.628125 24.895 21.31875 26 21 C26.86419223 18.40742331 27.17580932 16.65962293 27.31640625 13.98828125 C27.35451416 13.30548096 27.39262207 12.62268066 27.43188477 11.91918945 C27.49653931 10.62887817 27.49653931 10.62887817 27.5625 9.3125 C27.706875 6.569375 27.85125 3.82625 28 1 C18.76 1 9.52 1 0 1 C0 0.67 0 0.34 0 0 Z " fill="#0B85C4" transform="translate(193,252)"/>
<path d="M0 0 C0 4.62 0 9.24 0 14 C-2.9296875 14.42317708 -5.859375 14.84635417 -8.7890625 15.26953125 C-12.59929136 16.00256512 -12.59929136 16.00256512 -18 19 C-18.33 31.21 -18.66 43.42 -19 56 C-23.95 56 -28.9 56 -34 56 C-34 37.85 -34 19.7 -34 1 C-29.38 1 -24.76 1 -20 1 C-20 2.98 -20 4.96 -20 7 C-19.32453125 6.57847656 -18.6490625 6.15695313 -17.953125 5.72265625 C-17.06109375 5.17480469 -16.1690625 4.62695312 -15.25 4.0625 C-13.92742187 3.24458984 -13.92742187 3.24458984 -12.578125 2.41015625 C-7.97055376 -0.1100456 -5.49626829 0 0 0 Z " fill="#082D59" transform="translate(1272,168)"/>
<path d="M0 0 C0 4.62 0 9.24 0 14 C-2.9296875 14.42317708 -5.859375 14.84635417 -8.7890625 15.26953125 C-12.59929136 16.00256512 -12.59929136 16.00256512 -18 19 C-18.33 31.21 -18.66 43.42 -19 56 C-23.95 56 -28.9 56 -34 56 C-34 37.85 -34 19.7 -34 1 C-29.71 1 -25.42 1 -21 1 C-20.34 2.98 -19.68 4.96 -19 7 C-17.96875 6.21625 -16.9375 5.4325 -15.875 4.625 C-10.50355362 0.80986807 -6.68857902 0 0 0 Z " fill="#0A315D" transform="translate(1023,168)"/>
<path d="M0 0 C0 4.62 0 9.24 0 14 C-2.66927083 14.42317708 -5.33854167 14.84635417 -8.0078125 15.26953125 C-11.62698874 16.03557942 -11.62698874 16.03557942 -17 19 C-17.33 31.21 -17.66 43.42 -18 56 C-22.95 56 -27.9 56 -33 56 C-33.33 37.85 -33.66 19.7 -34 1 C-29.38 1 -24.76 1 -20 1 C-19.67 2.65 -19.34 4.3 -19 6 C-18.46375 5.731875 -17.9275 5.46375 -17.375 5.1875 C-16.59125 4.795625 -15.8075 4.40375 -15 4 C-14.030625 3.484375 -13.06125 2.96875 -12.0625 2.4375 C-7.82225353 0.44718023 -4.67467476 0 0 0 Z " fill="#09305C" transform="translate(839,168)"/>
<path d="M0 0 C0.70318359 -0.01611328 1.40636719 -0.03222656 2.13085938 -0.04882812 C6.64692408 -0.05306061 9.50892941 0.49634298 13.0625 3.3125 C15.88760164 6.26685466 16.45532916 8.25896678 16.375 12.3125 C16.37113281 13.158125 16.36726562 14.00375 16.36328125 14.875 C16.0625 17.3125 16.0625 17.3125 14.0625 21.3125 C6.4725 21.3125 -1.1175 21.3125 -8.9375 21.3125 C-7.73071679 27.68116419 -7.73071679 27.68116419 -5.9375 29.3125 C-4.52179877 29.39901611 -3.101905 29.41954904 -1.68359375 29.41015625 C-0.82958984 29.40693359 0.02441406 29.40371094 0.90429688 29.40039062 C2.25104492 29.38782227 2.25104492 29.38782227 3.625 29.375 C4.97754883 29.36823242 4.97754883 29.36823242 6.35742188 29.36132812 C8.59251314 29.34950225 10.82747437 29.3330222 13.0625 29.3125 C13.0625 31.2925 13.0625 33.2725 13.0625 35.3125 C8.40932771 37.66723033 4.15554656 37.64566983 -0.9375 37.625 C-1.7315625 37.64111328 -2.525625 37.65722656 -3.34375 37.67382812 C-9.04953584 37.67858295 -12.28938567 36.58231229 -16.6875 32.8125 C-20.20172796 28.59542644 -19.19281636 22.45242156 -18.9375 17.3125 C-18.42647182 12.13651459 -17.83564543 8.44699949 -14.5625 4.3125 C-9.69336187 0.60268047 -6.09374024 -0.02777457 0 0 Z " fill="#0B98CF" transform="translate(823.9375,262.6875)"/>
<path d="M0 0 C5.54883162 8.32324744 1.52647353 24.51405736 0 34 C-2.97 34 -5.94 34 -9 34 C-9.33 33.34 -9.66 32.68 -10 32 C-10.99 32.495 -11.98 32.99 -13 33.5 C-18.35322966 35.77106713 -22.86689012 35.82954273 -28.375 33.6875 C-31 32 -31 32 -33 29 C-33.72517392 24.49717589 -33.60000036 21.00714346 -31.25 17.0625 C-27.86444104 13.95907095 -25.27043767 12.73899375 -20.671875 12.8046875 C-19.87265625 12.81113281 -19.0734375 12.81757813 -18.25 12.82421875 C-17.425 12.84097656 -16.6 12.85773438 -15.75 12.875 C-14.90953125 12.88402344 -14.0690625 12.89304687 -13.203125 12.90234375 C-11.13529396 12.92584183 -9.06761005 12.96171092 -7 13 C-7.59861742 10.64828869 -8.26924352 8.3140622 -9 6 C-12.18824568 4.40587716 -15.62896662 4.89825265 -19.125 4.9375 C-20.25615234 4.94426758 -20.25615234 4.94426758 -21.41015625 4.95117188 C-23.27347127 4.96296501 -25.13674555 4.98090058 -27 5 C-27 3.02 -27 1.04 -27 -1 C-17.5239128 -2.91920753 -9.01306132 -4.46063931 0 0 Z " fill="#0892CB" transform="translate(673,265)"/>
<path d="M0 0 C4.3611038 6.5416557 1.7814136 16.60653401 1 24.125 C0.85691406 25.55972656 0.85691406 25.55972656 0.7109375 27.0234375 C0.47834117 29.34940079 0.23980287 31.67476864 0 34 C-3.3 34 -6.6 34 -10 34 C-10 33.34 -10 32.68 -10 32 C-10.556875 32.2165625 -11.11375 32.433125 -11.6875 32.65625 C-17.05135382 34.6133318 -21.29017188 35.57098281 -27 35 C-31.56944444 32.86111111 -31.56944444 32.86111111 -33 30 C-33.61766523 24.52042702 -34.04431644 20.37410058 -30.625 15.875 C-27.34654704 13.53324789 -25.81399659 12.87454932 -21.8671875 12.90234375 C-21.06152344 12.90556641 -20.25585938 12.90878906 -19.42578125 12.91210938 C-18.58402344 12.92048828 -17.74226562 12.92886719 -16.875 12.9375 C-15.60076172 12.94426758 -15.60076172 12.94426758 -14.30078125 12.95117188 C-12.20049091 12.96297126 -10.1002367 12.98090694 -8 13 C-8.25561323 10.6568787 -8.59270772 8.32156597 -9 6 C-12.18824568 4.40587716 -15.62896662 4.89825265 -19.125 4.9375 C-20.25615234 4.94426758 -20.25615234 4.94426758 -21.41015625 4.95117188 C-23.27347127 4.96296501 -25.13674555 4.98090058 -27 5 C-27 3.02 -27 1.04 -27 -1 C-6.768477 -3.50656037 -6.768477 -3.50656037 0 0 Z " fill="#0994CC" transform="translate(756,265)"/>
<path d="M0 0 C2.97 0 5.94 0 9 0 C9 0.99 9 1.98 9 3 C10.26650391 2.27296875 10.26650391 2.27296875 11.55859375 1.53125 C17.25767977 -1.00455218 22.88029863 -0.74558485 29 0 C32.375 1.8125 32.375 1.8125 34 5 C35.64754353 14.84823774 33.08238717 26.13288126 32 36 C29.03 36 26.06 36 23 36 C23.00523682 35.18732666 23.01047363 34.37465332 23.01586914 33.53735352 C23.03656994 29.87907678 23.04963803 26.22081233 23.0625 22.5625 C23.07087891 21.28310547 23.07925781 20.00371094 23.08789062 18.68554688 C23.09111328 17.47060547 23.09433594 16.25566406 23.09765625 15.00390625 C23.10289307 13.87799072 23.10812988 12.7520752 23.11352539 11.59204102 C23.29545448 9.07029129 23.29545448 9.07029129 22 8 C20.5653041 7.90105545 19.12559603 7.87029265 17.6875 7.875 C16.90761719 7.87242187 16.12773438 7.86984375 15.32421875 7.8671875 C13.08202927 7.99531261 11.16290507 8.42660382 9 9 C8.93941406 10.27875 8.87882813 11.5575 8.81640625 12.875 C8.73192784 14.5833411 8.64728359 16.29167401 8.5625 18 C8.50352539 19.25876953 8.50352539 19.25876953 8.44335938 20.54296875 C8.18148668 25.74013458 7.7100648 30.84457153 7 36 C3.7 36 0.4 36 -3 36 C-3.1089735 29.00390138 -2.69331894 22.15335167 -2.0625 15.1875 C-1.97548828 14.16462891 -1.88847656 13.14175781 -1.79882812 12.08789062 C-1.42984441 7.91427478 -1.01946811 4.07787242 0 0 Z " fill="#0C9ACF" transform="translate(684,263)"/>
<path d="M0 0 C2.97 0 5.94 0 9 0 C9.33 6.93 9.66 13.86 10 21 C12.18625 21.515625 14.3725 22.03125 16.625 22.5625 C17.85476563 22.85253906 19.08453125 23.14257812 20.3515625 23.44140625 C27.87752346 24.59366794 33.06076823 21.73476411 39.625 18.4375 C41.30107355 17.59563074 42.98065235 16.76069511 44.6640625 15.93359375 C45.40092285 15.56290771 46.1377832 15.19222168 46.89697266 14.81030273 C49 14 49 14 53 14 C53 16.97 53 19.94 53 23 C50.56401192 24.31537364 48.1263175 25.62739143 45.6875 26.9375 C44.65206055 27.49727539 44.65206055 27.49727539 43.59570312 28.06835938 C42.92861328 28.42607422 42.26152344 28.78378906 41.57421875 29.15234375 C40.96151123 29.48226318 40.34880371 29.81218262 39.7175293 30.15209961 C38 31 38 31 35 32 C34.814375 33.670625 34.814375 33.670625 34.625 35.375 C34 39 34 39 32 41 C29.5625 40.9375 29.5625 40.9375 27 40 C26.56647217 39.19280518 26.13294434 38.38561035 25.6862793 37.55395508 C23.54183832 34.30609102 22.19748639 34.05022177 18.45703125 33.19921875 C17.48999268 32.96807373 16.5229541 32.73692871 15.52661133 32.4987793 C14.30095459 32.23105713 13.07529785 31.96333496 11.8125 31.6875 C7.914375 30.800625 4.01625 29.91375 0 29 C0 19.43 0 9.86 0 0 Z " fill="#052C59" transform="translate(375,295)"/>
<path d="M0 0 C-0.33 2.97 -0.66 5.94 -1 9 C-2.01320313 9.18175781 -2.01320313 9.18175781 -3.046875 9.3671875 C-3.93890625 9.53476562 -4.8309375 9.70234375 -5.75 9.875 C-7.07257812 10.11863281 -7.07257812 10.11863281 -8.421875 10.3671875 C-11.01390718 11.00341358 -12.7967834 11.49503358 -15 13 C-15.8304996 15.49358002 -15.8304996 15.49358002 -16.046875 18.4453125 C-16.16933594 19.52167969 -16.29179688 20.59804688 -16.41796875 21.70703125 C-16.52753906 22.83496094 -16.63710938 23.96289062 -16.75 25.125 C-16.87503906 26.26066406 -17.00007812 27.39632813 -17.12890625 28.56640625 C-17.43586478 31.37625744 -17.72545157 34.18682747 -18 37 C-20.97 37 -23.94 37 -27 37 C-27.25129416 29.22384195 -26.88443315 21.66589303 -26.0625 13.9375 C-25.97564941 13.11660889 -25.88879883 12.29571777 -25.79931641 11.44995117 C-25.39560701 7.84305773 -24.88477678 4.53910712 -24 1 C-21.03 1 -18.06 1 -15 1 C-15 2.32 -15 3.64 -15 5 C-14.46890625 4.72285156 -13.9378125 4.44570313 -13.390625 4.16015625 C-12.33101562 3.61681641 -12.33101562 3.61681641 -11.25 3.0625 C-10.55390625 2.70285156 -9.8578125 2.34320313 -9.140625 1.97265625 C-5.97004622 0.53201005 -3.48822516 0 0 0 Z " fill="#0C97CB" transform="translate(872,262)"/>
<path d="M0 0 C34.19160311 -0.02296736 68.38320444 -0.04054929 102.57481362 -0.05106533 C106.6258035 -0.0523158 110.67679335 -0.05361015 114.7277832 -0.05493164 C115.53414804 -0.05519395 116.34051288 -0.05545626 117.17131301 -0.05572652 C130.17019288 -0.0600593 143.16906826 -0.06793348 156.16794548 -0.0771528 C169.53951232 -0.08655623 182.91107683 -0.09206966 196.28264683 -0.09408849 C204.5111752 -0.09544993 212.73969086 -0.09972469 220.96821531 -0.10791647 C226.63669358 -0.11326677 232.30516542 -0.11478582 237.97364602 -0.11350138 C241.22755377 -0.11287071 244.48143542 -0.11430203 247.73534012 -0.11920547 C260.70852611 -0.13777137 273.66129392 -0.02035644 286.62712097 0.44459534 C287.72326511 0.48339087 288.81940924 0.52218641 289.94876987 0.56215757 C296.33027757 0.81593657 302.65412074 1.27860755 309 2 C309 2.33 309 2.66 309 3 C308.12263184 3.05534912 307.24526367 3.11069824 306.34130859 3.16772461 C303.06477604 3.37589252 299.78844419 3.58681297 296.51220703 3.79956055 C295.09821462 3.89082234 293.68415234 3.9810085 292.27001953 4.07006836 C290.22929569 4.19878209 288.18886018 4.33145061 286.1484375 4.46484375 C284.31031494 4.58267212 284.31031494 4.58267212 282.43505859 4.70288086 C279.07956297 4.93840195 279.07956297 4.93840195 276.12304688 5.52734375 C272.02306611 6.14785366 268.02275596 6.12364722 263.8828125 6.09765625 C263.02565643 6.0962413 262.16850037 6.09482635 261.28536987 6.09336853 C258.5652101 6.08780022 255.84513462 6.07525364 253.125 6.0625 C251.27343869 6.0574809 249.42187609 6.05291871 247.5703125 6.04882812 C243.04684285 6.03784117 238.52343568 6.02059852 234 6 C234 5.67 234 5.34 234 5 C238.51654015 4.85556905 243.03314059 4.71324261 247.54980469 4.57275391 C249.08204886 4.52481094 250.61427605 4.47632155 252.14648438 4.42724609 C260.43292739 4.16220973 268.7080291 3.93405987 277 4 C277 3.34 277 2.68 277 2 C185.59 1.67 94.18 1.34 0 1 C0 0.67 0 0.34 0 0 Z " fill="#BFD6E4" transform="translate(929,262)"/>
<path d="M0 0 C0.78503906 0.00644531 1.57007813 0.01289063 2.37890625 0.01953125 C4.4375 0.1875 4.4375 0.1875 6.4375 1.1875 C6.47290736 4.27287029 6.43096806 7.35254056 6.375 10.4375 C6.38595703 11.31019531 6.39691406 12.18289063 6.40820312 13.08203125 C6.2400583 19.37545177 6.2400583 19.37545177 3.95092773 21.69165039 C0.68821651 23.66508896 -1.56348881 24.18748379 -5.375 24.125 C-8.5625 23.1875 -8.5625 23.1875 -10.5625 20.1875 C-11.27455351 13.77901839 -11.41597733 7.61091254 -7.5625 2.1875 C-4.404724 0.082316 -3.60852866 -0.06539344 0 0 Z " fill="#F4F9FB" transform="translate(783.5625,268.8125)"/>
<path d="M0 0 C0.85758911 -0.00315216 1.71517822 -0.00630432 2.59875488 -0.009552 C3.53102905 -0.00752777 4.46330322 -0.00550354 5.42382812 -0.00341797 C6.84979309 -0.00485306 6.84979309 -0.00485306 8.30456543 -0.00631714 C10.31876695 -0.00699904 12.33297065 -0.00514409 14.34716797 -0.00097656 C17.44178167 0.00437155 20.53625022 -0.00092124 23.63085938 -0.00732422 C25.58268261 -0.00666344 27.53450576 -0.00538228 29.48632812 -0.00341797 C30.88473938 -0.00645432 30.88473938 -0.00645432 32.31140137 -0.009552 C33.16899048 -0.00639984 34.02657959 -0.00324768 34.91015625 0 C35.66880981 0.00079559 36.42746338 0.00159119 37.20910645 0.00241089 C38.95507812 0.12939453 38.95507812 0.12939453 39.95507812 1.12939453 C40.08007812 3.62939453 40.08007812 3.62939453 39.95507812 6.12939453 C38.42775702 7.65671563 37.05503789 7.26391844 34.92602539 7.2746582 C34.07166397 7.28103806 33.21730255 7.28741791 32.33705139 7.29399109 C31.40791428 7.29510391 30.47877716 7.29621674 29.52148438 7.29736328 C28.57321274 7.30069168 27.6249411 7.30402008 26.64793396 7.30744934 C24.63793423 7.31252272 22.62792605 7.31485754 20.61791992 7.31469727 C17.53420193 7.31688275 14.45084206 7.33503136 11.3671875 7.35400391 C9.41862102 7.35693788 7.47005284 7.35892265 5.52148438 7.35986328 C4.13081505 7.37064156 4.13081505 7.37064156 2.71205139 7.38163757 C1.85453781 7.37856094 0.99702423 7.37548431 0.11352539 7.37231445 C-0.64290756 7.37373947 -1.39934052 7.37516449 -2.17869568 7.37663269 C-4.04492188 7.12939453 -4.04492188 7.12939453 -6.04492188 5.12939453 C-5.35482991 0.57478755 -4.44341073 0.00465977 0 0 Z " fill="#F4F6F7" transform="translate(391.044921875,204.87060546875)"/>
<path d="M0 0 C0.85758911 -0.00315216 1.71517822 -0.00630432 2.59875488 -0.009552 C3.53102905 -0.00752777 4.46330322 -0.00550354 5.42382812 -0.00341797 C6.84979309 -0.00485306 6.84979309 -0.00485306 8.30456543 -0.00631714 C10.31876695 -0.00699904 12.33297065 -0.00514409 14.34716797 -0.00097656 C17.44178167 0.00437155 20.53625022 -0.00092124 23.63085938 -0.00732422 C25.58268261 -0.00666344 27.53450576 -0.00538228 29.48632812 -0.00341797 C30.88473938 -0.00645432 30.88473938 -0.00645432 32.31140137 -0.009552 C33.16899048 -0.00639984 34.02657959 -0.00324768 34.91015625 0 C35.66880981 0.00079559 36.42746338 0.00159119 37.20910645 0.00241089 C38.95507812 0.12939453 38.95507812 0.12939453 39.95507812 1.12939453 C40.08007812 3.62939453 40.08007812 3.62939453 39.95507812 6.12939453 C38.42775702 7.65671563 37.05503789 7.26391844 34.92602539 7.2746582 C34.07166397 7.28103806 33.21730255 7.28741791 32.33705139 7.29399109 C31.40791428 7.29510391 30.47877716 7.29621674 29.52148438 7.29736328 C28.57321274 7.30069168 27.6249411 7.30402008 26.64793396 7.30744934 C24.63793423 7.31252272 22.62792605 7.31485754 20.61791992 7.31469727 C17.53420193 7.31688275 14.45084206 7.33503136 11.3671875 7.35400391 C9.41862102 7.35693788 7.47005284 7.35892265 5.52148438 7.35986328 C4.13081505 7.37064156 4.13081505 7.37064156 2.71205139 7.38163757 C1.85453781 7.37856094 0.99702423 7.37548431 0.11352539 7.37231445 C-0.64290756 7.37373947 -1.39934052 7.37516449 -2.17869568 7.37663269 C-4.04492188 7.12939453 -4.04492188 7.12939453 -6.04492188 5.12939453 C-5.35482991 0.57478755 -4.44341073 0.00465977 0 0 Z " fill="#F5F6F8" transform="translate(391.044921875,148.87060546875)"/>
<path d="M0 0 C1.25612595 -0.00450165 1.25612595 -0.00450165 2.53762817 -0.00909424 C3.8877449 0.00942596 3.8877449 0.00942596 5.26513672 0.02832031 C6.19075409 0.03019348 7.11637146 0.03206665 8.07003784 0.03399658 C10.0252442 0.04071728 11.9804371 0.05463212 13.93554688 0.07519531 C16.94006741 0.10639592 19.94406389 0.11617013 22.94873047 0.12207031 C24.84587233 0.13123825 26.74300883 0.14161335 28.64013672 0.15332031 C29.544263 0.15757019 30.44838928 0.16182007 31.37991333 0.16619873 C37.70266775 0.23928884 37.70266775 0.23928884 38.81982422 1.35644531 C38.94482422 3.85644531 38.94482422 3.85644531 38.81982422 6.35644531 C37.81982422 7.35644531 37.81982422 7.35644531 36.06712341 7.47669983 C35.30545364 7.47447922 34.54378387 7.47225861 33.7590332 7.4699707 C32.8982164 7.46989517 32.0373996 7.46981964 31.15049744 7.46974182 C30.21508621 7.46458054 29.27967499 7.45941925 28.31591797 7.45410156 C27.36290298 7.45268661 26.409888 7.45127167 25.42799377 7.44981384 C22.37107257 7.44419683 19.31422345 7.43164147 16.25732422 7.41894531 C14.19026798 7.4139325 12.1232106 7.40936922 10.05615234 7.40527344 C4.97734834 7.39422188 -0.10140148 7.37694586 -5.18017578 7.35644531 C-5.84017578 6.03644531 -6.50017578 4.71644531 -7.18017578 3.35644531 C-4.8766104 0.60846563 -3.5694612 -0.01766988 0 0 Z " fill="#EBEEF2" transform="translate(392.18017578125,257.6435546875)"/>
<path d="M0 0 C1.63001953 0.01353516 1.63001953 0.01353516 3.29296875 0.02734375 C4.12441406 0.03894531 4.95585938 0.05054688 5.8125 0.0625 C5.8125 3.6925 5.8125 7.3225 5.8125 11.0625 C0.63989181 13.96642039 -3.08908658 16.01911387 -9.1875 15.0625 C-11.125 13.5 -11.125 13.5 -12.1875 11.0625 C-12.82802288 4.97753268 -12.82802288 4.97753268 -10.875 2.1875 C-7.32636594 -0.17825604 -4.12983408 -0.04440682 0 0 Z " fill="#F5F7F9" transform="translate(869.1875,198.9375)"/>
<path d="M0 0 C2.625 1.5 2.625 1.5 4 4 C4.36472537 6.80348604 4.23419754 9.14279005 4 12 C3 13 3 13 -0.81640625 13.09765625 C-2.39846682 13.09098089 -3.98051159 13.07901875 -5.5625 13.0625 C-6.36880859 13.05798828 -7.17511719 13.05347656 -8.00585938 13.04882812 C-10.00393756 13.03700518 -12.00197783 13.01906914 -14 13 C-14.60550459 5.12844037 -14.60550459 5.12844037 -12.625 1.4375 C-8.50657954 -0.81782549 -4.58163626 -0.73062638 0 0 Z " fill="#EEF0F4" transform="translate(1305,179)"/>
<path d="M0 0 C5.06040549 0.63888887 9.28011534 2.86279277 13.8125 5.0625 C14.60076172 5.43955078 15.38902344 5.81660156 16.20117188 6.20507812 C18.13652473 7.13170161 20.06859549 8.06517467 22 9 C21.34 9.66 20.68 10.32 20 11 C19.01 10.67 18.02 10.34 17 10 C17 11.98 17 13.96 17 16 C12.42619624 15.43084601 8.81896167 14.21978812 4.6875 12.1875 C3.63949219 11.68605469 2.59148437 11.18460937 1.51171875 10.66796875 C-1 9 -1 9 -1.9140625 6.97265625 C-2.03112904 4.28544713 -1.13542853 2.4044369 0 0 Z " fill="#134878" transform="translate(239,293)"/>
<path d="M0 0 C1.9375 1.125 1.9375 1.125 3 3 C3.50030235 6.93094707 3.5996142 9.1005787 1.375 12.4375 C-1.75683492 14.49791771 -3.31544773 14.6767545 -7 14 C-9.9375 11.9375 -9.9375 11.9375 -12 9 C-12.06625411 5.1572617 -11.81899419 3.00799284 -9.375 0 C-5.91616747 -1.45635054 -3.58701629 -0.91305869 0 0 Z " fill="#F7F8FA" transform="translate(355,370)"/>
<path d="M0 0 C2.66106976 2.38813953 3.77849624 4.01553885 4.5625 7.5 C3.72100859 11.23996182 2.01163873 12.70853575 -1 15 C-4.68455227 15.6767545 -6.24316508 15.49791771 -9.375 13.4375 C-11.62340519 10.06489221 -11.56783945 7.97487617 -11 4 C-8.12368463 -0.48705198 -5.10517337 -0.82047429 0 0 Z " fill="#F2F4F6" transform="translate(289,345)"/>
<path d="M0 0 C2.4375 1.625 2.4375 1.625 4 4 C4.5625 6.9375 4.5625 6.9375 4 10 C1.9375 12.9375 1.9375 12.9375 -1 15 C-4.85210127 15.06641554 -6.99848005 14.87229157 -9.9375 12.3125 C-11.33817538 9.26397123 -11.4842732 7.32073048 -11 4 C-8.05899778 -0.47032338 -5.13105401 -0.73300772 0 0 Z " fill="#F1F3F6" transform="translate(484,284)"/>
<path d="M0 0 C2.4375 1.5625 2.4375 1.5625 4 4 C4.5625 7.5 4.5625 7.5 4 11 C1.58140437 13.69500656 -0.00763965 14.80636871 -3.5625 15.5 C-6.91868055 14.81155271 -8.00557936 13.77794303 -10 11 C-11 7.5 -11 7.5 -11 4 C-8.20049461 -0.54919625 -5.06940791 -0.72420113 0 0 Z " fill="#F3F8FB" transform="translate(419,345)"/>
<path d="M0 0 C2.9375 2.125 2.9375 2.125 5 5 C5.16299417 8.99335725 4.47797727 10.46739675 1.8125 13.4375 C-1 15 -1 15 -4.125 14.9375 C-8.55190311 13.49394464 -8.55190311 13.49394464 -10 11 C-10.46625573 8.24275935 -10.51045632 5.75302283 -10 3 C-7.21376523 -0.42921203 -4.23976577 -0.69220666 0 0 Z " fill="#F2F8FB" transform="translate(224,284)"/>
<path d="M0 0 C2.90326335 1.29882834 4.46256272 2.51258363 6.375 5.0625 C6.9375 7.5625 6.9375 7.5625 6.375 10.0625 C4.3125 12.4375 4.3125 12.4375 1.375 14.0625 C-2.17262251 14.00133409 -4.5605747 13.749226 -7.5625 11.8125 C-9.11728477 9.25167802 -9.25659976 8.00996553 -8.625 5.0625 C-3.98127316 0.09479222 -3.98127316 0.09479222 0 0 Z " fill="#F2F7FA" transform="translate(525.625,240.9375)"/>
<path d="M0 0 C2.98824585 1.22594702 4.49744287 2.41325716 6.4375 5 C6.9375 7.5 6.9375 7.5 6.4375 10 C4.875 12.3125 4.875 12.3125 2.4375 14 C-1.02480815 14.42519574 -3.3972167 14.63902633 -6.5 12.9375 C-8.22239792 9.79665674 -8.05398241 7.50181214 -7.5625 4 C-5.10190405 1.18789035 -3.78589784 0 0 0 Z " fill="#F4F6F8" transform="translate(177.5625,241)"/>
<path d="M0 0 C3.96 0 7.92 0 12 0 C12 3.96 12 7.92 12 12 C8.04 12 4.08 12 0 12 C0 8.04 0 4.08 0 0 Z " fill="#0BDDD8" transform="translate(271,255)"/>
<path d="M0 0 C4.29 0 8.58 0 13 0 C13 3.63 13 7.26 13 11 C8.71 11 4.42 11 0 11 C0 7.37 0 3.74 0 0 Z " fill="#8AACF3" transform="translate(291,202)"/>
<path d="M0 0 C4.29 0 8.58 0 13 0 C13 3.63 13 7.26 13 11 C8.71 11 4.42 11 0 11 C0 7.37 0 3.74 0 0 Z " fill="#16E9DF" transform="translate(271,202)"/>
<path d="M0 0 C4.29 0 8.58 0 13 0 C13 3.63 13 7.26 13 11 C8.71 11 4.42 11 0 11 C0 7.37 0 3.74 0 0 Z " fill="#BCD2F2" transform="translate(291,146)"/>
<path d="M0 0 C4.29 0 8.58 0 13 0 C13 3.63 13 7.26 13 11 C8.71 11 4.42 11 0 11 C0 7.37 0 3.74 0 0 Z " fill="#04E3D9" transform="translate(271,146)"/>
<path d="M0 0 C3.96 0 7.92 0 12 0 C12 3.63 12 7.26 12 11 C8.04 11 4.08 11 0 11 C0 7.37 0 3.74 0 0 Z " fill="#F2F4F6" transform="translate(312,256)"/>
<path d="M0 0 C3.96 0 7.92 0 12 0 C12 3.63 12 7.26 12 11 C8.04 11 4.08 11 0 11 C0 7.37 0 3.74 0 0 Z " fill="#F7F7F9" transform="translate(312,202)"/>
<path d="M0 0 C3.96 0 7.92 0 12 0 C12 3.63 12 7.26 12 11 C8.04 11 4.08 11 0 11 C0 7.37 0 3.74 0 0 Z " fill="#FAFAFB" transform="translate(312,146)"/>
<path d="M0 0 C1.08667969 0.02707031 2.17335938 0.05414063 3.29296875 0.08203125 C4.54013672 0.13423828 4.54013672 0.13423828 5.8125 0.1875 C5.8125 2.4975 5.8125 4.8075 5.8125 7.1875 C0.80317246 10.19309652 -2.51473489 10.48091888 -8.1875 10.1875 C-9.52896341 3.72408537 -9.52896341 3.72408537 -8.09375 1.46875 C-5.35794815 -0.37006764 -3.25849634 -0.10511279 0 0 Z " fill="#EAF5F9" transform="translate(659.1875,282.8125)"/>
<path d="M0 0 C0.99386719 0.02707031 1.98773437 0.05414063 3.01171875 0.08203125 C4.15060547 0.13423828 4.15060547 0.13423828 5.3125 0.1875 C5.3125 2.4975 5.3125 4.8075 5.3125 7.1875 C0.77391895 9.84423037 -2.4346116 10.59949125 -7.6875 10.1875 C-8.6875 9.1875 -8.6875 9.1875 -8.9375 6.3125 C-8.6875 3.1875 -8.6875 3.1875 -7.52734375 1.50390625 C-4.95692868 -0.33522301 -3.12327562 -0.11023326 0 0 Z " fill="#F4F9FB" transform="translate(741.6875,282.8125)"/>
<path d="M0 0 C2.4375 1.1875 2.4375 1.1875 4 3 C4.3125 5.625 4.3125 5.625 4 8 C3 9 3 9 -0.37890625 9.09765625 C-1.77347077 9.09098369 -3.16801743 9.07902532 -4.5625 9.0625 C-5.62887695 9.05573242 -5.62887695 9.05573242 -6.71679688 9.04882812 C-8.47790013 9.03700864 -10.23896036 9.01907263 -12 9 C-10.13452384 1.25109903 -8.1291051 -0.71307939 0 0 Z " fill="#F2F9FB" transform="translate(827,269)"/>
<path d="M0 0 C3.96 0 7.92 0 12 0 C12 3.3 12 6.6 12 10 C8.04 10 4.08 10 0 10 C0 6.7 0 3.4 0 0 Z " fill="#93C2FC" transform="translate(291,256)"/>
<path d="M0 0 C2.31 0 4.62 0 7 0 C7 3.63 7 7.26 7 11 C5.68 11 4.36 11 3 11 C2.34 11.66 1.68 12.32 1 13 C-0.00496852 9.98509443 -0.10335303 7.95818308 -0.0625 4.8125 C-0.05347656 3.91144531 -0.04445312 3.01039063 -0.03515625 2.08203125 C-0.02355469 1.39496094 -0.01195312 0.70789063 0 0 Z " fill="#004C8F" transform="translate(222,252)"/>
<path d="M0 0 C5.94 0.33 11.88 0.66 18 1 C18 1.33 18 1.66 18 2 C12.06 2.33 6.12 2.66 0 3 C0 2.01 0 1.02 0 0 Z " fill="#CFDDE9" transform="translate(1220,263)"/>
<path d="M0 0 C3.96 0 7.92 0 12 0 C12 0.99 12 1.98 12 3 C4.5 3.375 4.5 3.375 0 0 Z " fill="#C3D5E4" transform="translate(1208,263)"/>
<path d="M0 0 C0.99 0.33 1.98 0.66 3 1 C-0.66666667 4.66666667 -4.33333333 8.33333333 -8 12 C-6.64994369 6.32976351 -4.1842771 3.82042691 0 0 Z " fill="#1B426E" transform="translate(182,133)"/>
<path d="M0 0 C-1.12949048 3.38847145 -2.12283218 4.19694184 -4.8125 6.4375 C-7.66759505 8.85689832 -10.4052662 11.2971523 -13 14 C-13.66 13.67 -14.32 13.34 -15 13 C-12.88094537 10.82722286 -10.75527122 8.66173092 -8.625 6.5 C-8.02171875 5.87996094 -7.4184375 5.25992188 -6.796875 4.62109375 C-6.21679688 4.03457031 -5.63671875 3.44804688 -5.0390625 2.84375 C-4.50490723 2.29912109 -3.97075195 1.75449219 -3.42041016 1.19335938 C-2 0 -2 0 0 0 Z " fill="#146CA3" transform="translate(305,44)"/>
<path d="M0 0 C1.9451 2.91765 2.45276317 4.62537285 3 8 C0.36 8.99 -2.28 9.98 -5 11 C-5.66 10.01 -6.32 9.02 -7 8 C-5.35 8 -3.7 8 -2 8 C-0.23537317 4.91190305 0 3.76687864 0 0 Z " fill="#0F5F99" transform="translate(409,327)"/>
<path d="M0 0 C1.65 0 3.3 0 5 0 C5 0.99 5 1.98 5 3 C5.33 3.66 5.66 4.32 6 5 C3.03 5 0.06 5 -3 5 C-2.01 4.67 -1.02 4.34 0 4 C0 2.68 0 1.36 0 0 Z " fill="#0183C0" transform="translate(656,278)"/>
<path d="M0 0 C0.66 0.66 1.32 1.32 2 2 C1.01 3.32 0.02 4.64 -1 6 C-3.4375 5.625 -3.4375 5.625 -6 5 C-6.33 4.34 -6.66 3.68 -7 3 C-6.21625 2.87625 -5.4325 2.7525 -4.625 2.625 C-1.85942178 2.20882007 -1.85942178 2.20882007 0 0 Z " fill="#04427B" transform="translate(408,330)"/>
<path d="M0 0 C1.32 0.33 2.64 0.66 4 1 C4 3.31 4 5.62 4 8 C2 6.8125 2 6.8125 0 5 C-0.25 2.3125 -0.25 2.3125 0 0 Z " fill="#CBE1EE" transform="translate(256,303)"/>
<path d="M0 0 C0 3 0 3 -2 5.1875 C-2.66 5.785625 -3.32 6.38375 -4 7 C-4.66 6.67 -5.32 6.34 -6 6 C-2.25 1.125 -2.25 1.125 0 0 Z " fill="#173B64" transform="translate(1285,171)"/>
</svg>
